<svg xmlns="http://www.w3.org/2000/svg" viewBox="0 0 200 400" width="200" height="400" data-rig="graham" data-build="boxy">
  <g id="torso">
    <g id="leg_L"><path d="M 77.74 242.1 C 78.59 241.16, 77.01 241.08, 77.87 241.97 C 78.73 242.85, 81.14 245.62, 82.88 247.38 C 84.62 249.14, 87.44 243.81, 88.32 252.52 C 89.19 261.24, 88.09 283.96, 88.14 299.68 C 88.19 315.4, 88.58 331.1, 88.61 346.84 C 88.64 362.59, 89.22 385.38, 88.32 394.16 C 87.43 402.93, 85 397.78, 83.23 399.5 C 81.47 401.21, 78.66 403.6, 77.74 404.43 C 76.82 405.25, 78.6 405.3, 77.71 404.45 C 76.82 403.61, 74.15 401.1, 72.38 399.36 C 70.61 397.62, 67.87 402.75, 67.1 394 C 66.32 385.25, 67.66 362.56, 67.73 346.84 C 67.8 331.12, 67.57 315.39, 67.51 299.68 C 67.45 283.97, 66.5 261.27, 67.37 252.59 C 68.25 243.9, 71.05 249.31, 72.78 247.56 C 74.5 245.81, 76.89 243.03, 77.74 242.1 Z" fill="#3d3d4d" stroke="none" transform="translate(0.49,-0.36)"/><path d="M 77.74 242.1 C 78.59 241.16, 77.01 241.08, 77.87 241.97 C 78.73 242.85, 81.14 245.62, 82.88 247.38 C 84.62 249.14, 87.44 243.81, 88.32 252.52 C 89.19 261.24, 88.09 283.96, 88.14 299.68 C 88.19 315.4, 88.58 331.1, 88.61 346.84 C 88.64 362.59, 89.22 385.38, 88.32 394.16 C 87.43 402.93, 85 397.78, 83.23 399.5 C 81.47 401.21, 78.66 403.6, 77.74 404.43 C 76.82 405.25, 78.6 405.3, 77.71 404.45 C 76.82 403.61, 74.15 401.1, 72.38 399.36 C 70.61 397.62, 67.87 402.75, 67.1 394 C 66.32 385.25, 67.66 362.56, 67.73 346.84 C 67.8 331.12, 67.57 315.39, 67.51 299.68 C 67.45 283.97, 66.5 261.27, 67.37 252.59 C 68.25 243.9, 71.05 249.31, 72.78 247.56 C 74.5 245.81, 76.89 243.03, 77.74 242.1 Z" fill="none" stroke="#1a1a1a" stroke-width="5.55" stroke-linecap="round" stroke-linejoin="round"/><path d="M 100.74 394.04 C 100.76 395.76, 99.41 397.81, 97.43 399.19 C 95.45 400.58, 92.06 401.81, 88.86 402.35 C 85.66 402.9, 81.44 403, 78.24 402.48 C 75.03 401.95, 71.6 400.62, 69.64 399.21 C 67.68 397.8, 66.46 395.75, 66.47 394 C 66.48 392.25, 67.72 390.12, 69.69 388.72 C 71.66 387.32, 75.1 386.1, 78.29 385.59 C 81.49 385.08, 85.7 385.09, 88.87 385.64 C 92.05 386.19, 95.36 387.5, 97.34 388.9 C 99.32 390.3, 100.73 392.32, 100.74 394.04 Z" fill="#2b2f38" stroke="none" transform="translate(0.39,-0.29)"/><path d="M 100.74 394.04 C 100.76 395.76, 99.41 397.81, 97.43 399.19 C 95.45 400.58, 92.06 401.81, 88.86 402.35 C 85.66 402.9, 81.44 403, 78.24 402.48 C 75.03 401.95, 71.6 400.62, 69.64 399.21 C 67.68 397.8, 66.46 395.75, 66.47 394 C 66.48 392.25, 67.72 390.12, 69.69 388.72 C 71.66 387.32, 75.1 386.1, 78.29 385.59 C 81.49 385.08, 85.7 385.09, 88.87 385.64 C 92.05 386.19, 95.36 387.5, 97.34 388.9 C 99.32 390.3, 100.73 392.32, 100.74 394.04 Z" fill="none" stroke="#1a1a1a" stroke-width="4.54" stroke-linecap="round" stroke-linejoin="round"/></g>
    <g id="leg_R"><path d="M 122.26 242.1 C 123.11 241.18, 121.5 241.12, 122.33 242.02 C 123.17 242.92, 125.6 245.74, 127.3 247.49 C 128.99 249.24, 131.59 243.82, 132.48 252.52 C 133.37 261.22, 132.58 283.96, 132.64 299.68 C 132.71 315.4, 132.85 331.13, 132.86 346.84 C 132.86 362.56, 133.61 385.29, 132.66 393.97 C 131.71 402.65, 128.91 397.17, 127.17 398.91 C 125.44 400.66, 123.08 403.51, 122.26 404.43 C 121.44 405.35, 123.19 405.24, 122.27 404.42 C 121.35 403.61, 118.49 401.27, 116.73 399.54 C 114.96 397.8, 112.58 402.78, 111.7 394 C 110.81 385.22, 111.41 362.56, 111.43 346.84 C 111.44 331.12, 111.73 315.4, 111.81 299.68 C 111.88 283.97, 110.96 261.25, 111.87 252.55 C 112.77 243.86, 115.5 249.24, 117.23 247.49 C 118.97 245.75, 121.41 243.01, 122.26 242.1 Z" fill="#3d3d4d" stroke="none" transform="translate(0.49,-0.36)"/><path d="M 122.26 242.1 C 123.11 241.18, 121.5 241.12, 122.33 242.02 C 123.17 242.92, 125.6 245.74, 127.3 247.49 C 128.99 249.24, 131.59 243.82, 132.48 252.52 C 133.37 261.22, 132.58 283.96, 132.64 299.68 C 132.71 315.4, 132.85 331.13, 132.86 346.84 C 132.86 362.56, 133.61 385.29, 132.66 393.97 C 131.71 402.65, 128.91 397.17, 127.17 398.91 C 125.44 400.66, 123.08 403.51, 122.26 404.43 C 121.44 405.35, 123.19 405.24, 122.27 404.42 C 121.35 403.61, 118.49 401.27, 116.73 399.54 C 114.96 397.8, 112.58 402.78, 111.7 394 C 110.81 385.22, 111.41 362.56, 111.43 346.84 C 111.44 331.12, 111.73 315.4, 111.81 299.68 C 111.88 283.97, 110.96 261.25, 111.87 252.55 C 112.77 243.86, 115.5 249.24, 117.23 247.49 C 118.97 245.75, 121.41 243.01, 122.26 242.1 Z" fill="none" stroke="#1a1a1a" stroke-width="5.07" stroke-linecap="round" stroke-linejoin="round"/><path d="M 145.16 393.97 C 145.16 395.66, 143.85 397.6, 141.88 399 C 139.92 400.41, 136.56 401.85, 133.39 402.4 C 130.21 402.95, 126.01 402.84, 122.83 402.29 C 119.66 401.74, 116.33 400.5, 114.34 399.1 C 112.35 397.71, 110.89 395.65, 110.87 393.92 C 110.85 392.19, 112.23 390.1, 114.22 388.73 C 116.21 387.37, 119.63 386.21, 122.82 385.71 C 126.01 385.21, 130.18 385.21, 133.36 385.73 C 136.54 386.26, 139.93 387.5, 141.9 388.87 C 143.87 390.25, 145.16 392.28, 145.16 393.97 Z" fill="#2b2f38" stroke="none" transform="translate(0.39,-0.29)"/><path d="M 145.16 393.97 C 145.16 395.66, 143.85 397.6, 141.88 399 C 139.92 400.41, 136.56 401.85, 133.39 402.4 C 130.21 402.95, 126.01 402.84, 122.83 402.29 C 119.66 401.74, 116.33 400.5, 114.34 399.1 C 112.35 397.71, 110.89 395.65, 110.87 393.92 C 110.85 392.19, 112.23 390.1, 114.22 388.73 C 116.21 387.37, 119.63 386.21, 122.82 385.71 C 126.01 385.21, 130.18 385.21, 133.36 385.73 C 136.54 386.26, 139.93 387.5, 141.9 388.87 C 143.87 390.25, 145.16 392.28, 145.16 393.97 Z" fill="none" stroke="#1a1a1a" stroke-width="5.11" stroke-linecap="round" stroke-linejoin="round"/></g>
    <path d="M 87.49 110.76 C 89.48 108.66, 95.85 110.89, 100 110.91 C 104.15 110.93, 110.43 108.8, 112.42 110.89 C 114.4 112.99, 111.96 119.29, 111.93 123.48 C 111.9 127.68, 112.13 131.86, 112.23 136.08 C 112.32 140.3, 114.55 146.76, 112.51 148.8 C 110.48 150.84, 104.14 148.35, 100 148.32 C 95.86 148.3, 89.76 150.71, 87.68 148.67 C 85.59 146.63, 87.43 140.27, 87.49 136.08 C 87.55 131.88, 88.04 127.7, 88.04 123.48 C 88.04 119.26, 85.49 112.85, 87.49 110.76 Z" fill="#8d5a3b" stroke="none" transform="translate(0.59,-0.43)"/><path d="M 87.49 110.76 C 89.48 108.66, 95.85 110.89, 100 110.91 C 104.15 110.93, 110.43 108.8, 112.42 110.89 C 114.4 112.99, 111.96 119.29, 111.93 123.48 C 111.9 127.68, 112.13 131.86, 112.23 136.08 C 112.32 140.3, 114.55 146.76, 112.51 148.8 C 110.48 150.84, 104.14 148.35, 100 148.32 C 95.86 148.3, 89.76 150.71, 87.68 148.67 C 85.59 146.63, 87.43 140.27, 87.49 136.08 C 87.55 131.88, 88.04 127.7, 88.04 123.48 C 88.04 119.26, 85.49 112.85, 87.49 110.76 Z" fill="none" stroke="#1a1a1a" stroke-width="3.29" stroke-linecap="round" stroke-linejoin="round"/>
    <path d="M 43.82 130.1 C 49.63 128.89, 68.79 133.21, 81.27 132.96 C 93.76 132.71, 106.43 129.02, 118.73 128.62 C 131.02 128.21, 149.28 128.61, 155.05 130.54 C 160.82 132.48, 153.28 136.91, 153.34 140.2 C 153.4 143.48, 155.33 146.99, 155.4 150.26 C 155.48 153.54, 154.54 151.76, 153.78 159.84 C 153.01 167.92, 150.69 185.77, 150.79 198.73 C 150.89 211.7, 154.02 224.84, 154.39 237.63 C 154.76 250.42, 159.12 269.12, 153 275.48 C 146.88 281.84, 129.45 275.33, 117.67 275.77 C 105.89 276.22, 94.28 278.04, 82.33 278.17 C 70.39 278.29, 52.03 283.28, 45.99 276.52 C 39.95 269.77, 46.08 250.59, 46.11 237.63 C 46.15 224.66, 46.14 211.69, 46.2 198.73 C 46.26 185.78, 46.36 168.02, 46.47 159.9 C 46.57 151.78, 46.84 153.3, 46.82 150.02 C 46.81 146.74, 46.87 143.55, 46.37 140.23 C 45.87 136.91, 38 131.31, 43.82 130.1 Z" fill="#5b7c99" stroke="none" transform="translate(2.6,-1.9)"/><path d="M 43.82 130.1 C 49.63 128.89, 68.79 133.21, 81.27 132.96 C 93.76 132.71, 106.43 129.02, 118.73 128.62 C 131.02 128.21, 149.28 128.61, 155.05 130.54 C 160.82 132.48, 153.28 136.91, 153.34 140.2 C 153.4 143.48, 155.33 146.99, 155.4 150.26 C 155.48 153.54, 154.54 151.76, 153.78 159.84 C 153.01 167.92, 150.69 185.77, 150.79 198.73 C 150.89 211.7, 154.02 224.84, 154.39 237.63 C 154.76 250.42, 159.12 269.12, 153 275.48 C 146.88 281.84, 129.45 275.33, 117.67 275.77 C 105.89 276.22, 94.28 278.04, 82.33 278.17 C 70.39 278.29, 52.03 283.28, 45.99 276.52 C 39.95 269.77, 46.08 250.59, 46.11 237.63 C 46.15 224.66, 46.14 211.69, 46.2 198.73 C 46.26 185.78, 46.36 168.02, 46.47 159.9 C 46.57 151.78, 46.84 153.3, 46.82 150.02 C 46.81 146.74, 46.87 143.55, 46.37 140.23 C 45.87 136.91, 38 131.31, 43.82 130.1 Z" fill="none" stroke="#1a1a1a" stroke-width="3.42" stroke-linecap="round" stroke-linejoin="round"/>
    <clipPath id="clip_torso"><path d="M 43.8 130.7 L 156.2 130.7 L 153.0 159.8 L 153.0 276.5 L 47.0 276.5 L 47.0 159.8 Z"/></clipPath><g clip-path="url(#clip_torso)"><path d="M 43 155.61 C 49.33 155.26, 68.33 153.47, 81 153.47 C 93.67 153.48, 106.33 155.39, 119 155.64 C 131.67 155.89, 150.67 155.09, 157 154.98" fill="none" stroke="#c9803f" stroke-width="3.74" stroke-linecap="round"/><path d="M 43 178.65 C 49.33 178.82, 68.33 179.53, 81 179.66 C 93.67 179.8, 106.33 179.53, 119 179.46 C 131.67 179.4, 150.67 179.32, 157 179.29" fill="none" stroke="#c9803f" stroke-width="6.26" stroke-linecap="round"/><path d="M 43 203.61 C 49.33 203.5, 68.33 203.11, 81 202.96 C 93.67 202.8, 106.33 202.57, 119 202.68 C 131.67 202.79, 150.67 203.44, 157 203.6" fill="none" stroke="#c9803f" stroke-width="3.67" stroke-linecap="round"/><path d="M 43 227.55 C 49.33 227.46, 68.33 227.07, 81 226.99 C 93.67 226.91, 106.33 226.93, 119 227.09 C 131.67 227.24, 150.67 227.77, 157 227.91" fill="none" stroke="#c9803f" stroke-width="3.51" stroke-linecap="round"/><path d="M 43 252.28 C 49.33 252.5, 68.33 253.61, 81 253.55 C 93.67 253.48, 106.33 252.09, 119 251.87 C 131.67 251.65, 150.67 252.16, 157 252.21" fill="none" stroke="#c9803f" stroke-width="4.53" stroke-linecap="round"/></g>
    
    
    <g id="arm_L_upper">
      <path d="M 53 144.24 C 53.93 143.4, 52.2 143.3, 53.09 144.15 C 53.98 144.99, 56.64 147.58, 58.33 149.33 C 60.03 151.08, 62.35 150.47, 63.26 154.67 C 64.17 158.87, 63.76 167.92, 63.78 174.55 C 63.81 181.18, 63.48 187.83, 63.4 194.43 C 63.32 201.04, 64.19 210.03, 63.29 214.18 C 62.39 218.33, 59.72 217.56, 58 219.32 C 56.29 221.08, 53.82 223.85, 53 224.74 C 52.17 225.64, 53.9 225.58, 53.06 224.68 C 52.21 223.79, 49.72 221.1, 47.94 219.37 C 46.17 217.64, 43.37 218.47, 42.42 214.31 C 41.47 210.16, 42.19 201.06, 42.23 194.43 C 42.28 187.81, 42.64 181.18, 42.69 174.55 C 42.73 167.92, 41.72 158.85, 42.53 154.63 C 43.33 150.4, 45.76 150.91, 47.51 149.18 C 49.25 147.45, 52.07 145.08, 53 144.24 Z" fill="#5b7c99" stroke="none" transform="translate(0.49,-0.36)"/><path d="M 53 144.24 C 53.93 143.4, 52.2 143.3, 53.09 144.15 C 53.98 144.99, 56.64 147.58, 58.33 149.33 C 60.03 151.08, 62.35 150.47, 63.26 154.67 C 64.17 158.87, 63.76 167.92, 63.78 174.55 C 63.81 181.18, 63.48 187.83, 63.4 194.43 C 63.32 201.04, 64.19 210.03, 63.29 214.18 C 62.39 218.33, 59.72 217.56, 58 219.32 C 56.29 221.08, 53.82 223.85, 53 224.74 C 52.17 225.64, 53.9 225.58, 53.06 224.68 C 52.21 223.79, 49.72 221.1, 47.94 219.37 C 46.17 217.64, 43.37 218.47, 42.42 214.31 C 41.47 210.16, 42.19 201.06, 42.23 194.43 C 42.28 187.81, 42.64 181.18, 42.69 174.55 C 42.73 167.92, 41.72 158.85, 42.53 154.63 C 43.33 150.4, 45.76 150.91, 47.51 149.18 C 49.25 147.45, 52.07 145.08, 53 144.24 Z" fill="none" stroke="#1a1a1a" stroke-width="4" stroke-linecap="round" stroke-linejoin="round"/>
      <g id="arm_L_fore">
        <path d="M 53 203.89 C 53.84 203.02, 52.07 203.07, 52.91 203.97 C 53.75 204.87, 56.32 207.55, 58.04 209.27 C 59.76 211, 62.3 210.64, 63.23 214.31 C 64.16 217.99, 63.58 225.65, 63.6 231.31 C 63.62 236.98, 63.37 242.66, 63.33 248.31 C 63.28 253.96, 64.15 261.47, 63.33 265.21 C 62.52 268.95, 60.16 268.99, 58.43 270.74 C 56.71 272.49, 53.88 274.92, 53 275.73 C 52.11 276.54, 53.97 276.49, 53.11 275.61 C 52.25 274.73, 49.61 272.17, 47.84 270.46 C 46.08 268.74, 43.35 268.99, 42.51 265.3 C 41.67 261.61, 42.78 253.97, 42.82 248.31 C 42.87 242.64, 42.82 236.99, 42.76 231.31 C 42.7 225.63, 41.62 217.9, 42.46 214.21 C 43.31 210.52, 46.08 210.88, 47.84 209.16 C 49.59 207.44, 52.15 204.75, 53 203.89 Z" fill="#8d5a3b" stroke="none" transform="translate(0.49,-0.36)"/><path d="M 53 203.89 C 53.84 203.02, 52.07 203.07, 52.91 203.97 C 53.75 204.87, 56.32 207.55, 58.04 209.27 C 59.76 211, 62.3 210.64, 63.23 214.31 C 64.16 217.99, 63.58 225.65, 63.6 231.31 C 63.62 236.98, 63.37 242.66, 63.33 248.31 C 63.28 253.96, 64.15 261.47, 63.33 265.21 C 62.52 268.95, 60.16 268.99, 58.43 270.74 C 56.71 272.49, 53.88 274.92, 53 275.73 C 52.11 276.54, 53.97 276.49, 53.11 275.61 C 52.25 274.73, 49.61 272.17, 47.84 270.46 C 46.08 268.74, 43.35 268.99, 42.51 265.3 C 41.67 261.61, 42.78 253.97, 42.82 248.31 C 42.87 242.64, 42.82 236.99, 42.76 231.31 C 42.7 225.63, 41.62 217.9, 42.46 214.21 C 43.31 210.52, 46.08 210.88, 47.84 209.16 C 49.59 207.44, 52.15 204.75, 53 203.89 Z" fill="none" stroke="#1a1a1a" stroke-width="5.4" stroke-linecap="round" stroke-linejoin="round"/>
        <path d="M 66 265.33 C 66.01 267.86, 64.96 270.85, 63.46 272.91 C 61.96 274.97, 59.39 276.93, 56.99 277.7 C 54.59 278.46, 51.5 278.3, 49.07 277.51 C 46.64 276.71, 43.9 274.97, 42.42 272.94 C 40.95 270.91, 40.2 267.91, 40.2 265.34 C 40.19 262.77, 40.93 259.56, 42.4 257.52 C 43.87 255.48, 46.56 253.86, 49 253.09 C 51.44 252.33, 54.64 252.16, 57.04 252.93 C 59.45 253.7, 61.93 255.65, 63.42 257.71 C 64.92 259.78, 65.99 262.79, 66 265.33 Z" fill="#8d5a3b" stroke="none" transform="translate(0.58,-0.42)"/><path d="M 66 265.33 C 66.01 267.86, 64.96 270.85, 63.46 272.91 C 61.96 274.97, 59.39 276.93, 56.99 277.7 C 54.59 278.46, 51.5 278.3, 49.07 277.51 C 46.64 276.71, 43.9 274.97, 42.42 272.94 C 40.95 270.91, 40.2 267.91, 40.2 265.34 C 40.19 262.77, 40.93 259.56, 42.4 257.52 C 43.87 255.48, 46.56 253.86, 49 253.09 C 51.44 252.33, 54.64 252.16, 57.04 252.93 C 59.45 253.7, 61.93 255.65, 63.42 257.71 C 64.92 259.78, 65.99 262.79, 66 265.33 Z" fill="none" stroke="#1a1a1a" stroke-width="4.09" stroke-linecap="round" stroke-linejoin="round"/>
      </g>
    </g>
    <g id="arm_R_upper">
      <path d="M 147 144.24 C 147.88 143.38, 146.16 143.35, 147 144.24 C 147.84 145.14, 150.33 147.87, 152.07 149.61 C 153.81 151.34, 156.55 150.51, 157.44 154.67 C 158.33 158.83, 157.32 167.92, 157.4 174.55 C 157.47 181.18, 157.84 187.79, 157.87 194.43 C 157.89 201.08, 158.51 210.27, 157.55 214.43 C 156.59 218.6, 153.87 217.71, 152.12 219.43 C 150.36 221.14, 147.86 223.85, 147 224.74 C 146.15 225.63, 147.83 225.66, 146.97 224.78 C 146.11 223.9, 143.57 221.2, 141.87 219.45 C 140.16 217.71, 137.68 218.48, 136.74 214.31 C 135.79 210.14, 136.19 201.06, 136.18 194.43 C 136.18 187.81, 136.64 181.16, 136.73 174.55 C 136.82 167.95, 135.87 158.99, 136.71 154.8 C 137.55 150.61, 140.04 151.18, 141.76 149.42 C 143.47 147.66, 146.13 145.1, 147 144.24 Z" fill="#5b7c99" stroke="none" transform="translate(0.49,-0.36)"/><path d="M 147 144.24 C 147.88 143.38, 146.16 143.35, 147 144.24 C 147.84 145.14, 150.33 147.87, 152.07 149.61 C 153.81 151.34, 156.55 150.51, 157.44 154.67 C 158.33 158.83, 157.32 167.92, 157.4 174.55 C 157.47 181.18, 157.84 187.79, 157.87 194.43 C 157.89 201.08, 158.51 210.27, 157.55 214.43 C 156.59 218.6, 153.87 217.71, 152.12 219.43 C 150.36 221.14, 147.86 223.85, 147 224.74 C 146.15 225.63, 147.83 225.66, 146.97 224.78 C 146.11 223.9, 143.57 221.2, 141.87 219.45 C 140.16 217.71, 137.68 218.48, 136.74 214.31 C 135.79 210.14, 136.19 201.06, 136.18 194.43 C 136.18 187.81, 136.64 181.16, 136.73 174.55 C 136.82 167.95, 135.87 158.99, 136.71 154.8 C 137.55 150.61, 140.04 151.18, 141.76 149.42 C 143.47 147.66, 146.13 145.1, 147 144.24 Z" fill="none" stroke="#1a1a1a" stroke-width="3.52" stroke-linecap="round" stroke-linejoin="round"/>
      <g id="arm_R_fore">
        <path d="M 147 203.89 C 147.93 203.07, 146.11 203.04, 147 203.89 C 147.88 204.75, 150.55 207.26, 152.32 209 C 154.09 210.74, 156.79 210.6, 157.6 214.31 C 158.41 218.03, 157.23 225.65, 157.18 231.31 C 157.13 236.98, 157.26 242.65, 157.3 248.31 C 157.33 253.96, 158.21 261.53, 157.39 265.26 C 156.57 268.99, 154.12 268.95, 152.39 270.69 C 150.66 272.44, 147.9 274.89, 147 275.73 C 146.11 276.57, 147.93 276.55, 147.01 275.72 C 146.1 274.89, 143.27 272.51, 141.53 270.78 C 139.79 269.04, 137.46 269.05, 136.58 265.3 C 135.69 261.56, 136.24 253.97, 136.22 248.31 C 136.19 242.64, 136.34 236.96, 136.42 231.31 C 136.5 225.66, 135.85 218.18, 136.69 214.43 C 137.53 210.67, 139.75 210.53, 141.47 208.78 C 143.19 207.02, 146.08 204.7, 147 203.89 Z" fill="#8d5a3b" stroke="none" transform="translate(0.49,-0.36)"/><path d="M 147 203.89 C 147.93 203.07, 146.11 203.04, 147 203.89 C 147.88 204.75, 150.55 207.26, 152.32 209 C 154.09 210.74, 156.79 210.6, 157.6 214.31 C 158.41 218.03, 157.23 225.65, 157.18 231.31 C 157.13 236.98, 157.26 242.65, 157.3 248.31 C 157.33 253.96, 158.21 261.53, 157.39 265.26 C 156.57 268.99, 154.12 268.95, 152.39 270.69 C 150.66 272.44, 147.9 274.89, 147 275.73 C 146.11 276.57, 147.93 276.55, 147.01 275.72 C 146.1 274.89, 143.27 272.51, 141.53 270.78 C 139.79 269.04, 137.46 269.05, 136.58 265.3 C 135.69 261.56, 136.24 253.97, 136.22 248.31 C 136.19 242.64, 136.34 236.96, 136.42 231.31 C 136.5 225.66, 135.85 218.18, 136.69 214.43 C 137.53 210.67, 139.75 210.53, 141.47 208.78 C 143.19 207.02, 146.08 204.7, 147 203.89 Z" fill="none" stroke="#1a1a1a" stroke-width="4.82" stroke-linecap="round" stroke-linejoin="round"/>
        <path d="M 160.02 265.33 C 160.05 267.89, 159.09 271.04, 157.58 273.07 C 156.08 275.1, 153.41 276.77, 151 277.5 C 148.59 278.23, 145.51 278.22, 143.11 277.45 C 140.71 276.68, 138.1 274.91, 136.6 272.88 C 135.1 270.86, 134.15 267.87, 134.13 265.32 C 134.12 262.78, 135.01 259.71, 136.49 257.62 C 137.97 255.54, 140.6 253.59, 143.01 252.83 C 145.42 252.07, 148.55 252.26, 150.95 253.08 C 153.34 253.89, 155.88 255.69, 157.39 257.73 C 158.9 259.77, 159.99 262.77, 160.02 265.33 Z" fill="#8d5a3b" stroke="none" transform="translate(0.58,-0.42)"/><path d="M 160.02 265.33 C 160.05 267.89, 159.09 271.04, 157.58 273.07 C 156.08 275.1, 153.41 276.77, 151 277.5 C 148.59 278.23, 145.51 278.22, 143.11 277.45 C 140.71 276.68, 138.1 274.91, 136.6 272.88 C 135.1 270.86, 134.15 267.87, 134.13 265.32 C 134.12 262.78, 135.01 259.71, 136.49 257.62 C 137.97 255.54, 140.6 253.59, 143.01 252.83 C 145.42 252.07, 148.55 252.26, 150.95 253.08 C 153.34 253.89, 155.88 255.69, 157.39 257.73 C 158.9 259.77, 159.99 262.77, 160.02 265.33 Z" fill="none" stroke="#1a1a1a" stroke-width="4.2" stroke-linecap="round" stroke-linejoin="round"/>
      </g>
    </g>
    <g id="head">
      <g id="hair_back"></g>
      <path d="M 59.92 72.64 C 59.89 74.61, 59.22 76.93, 58.36 78.5 C 57.51 80.08, 56.13 81.45, 54.77 82.07 C 53.42 82.7, 51.55 82.87, 50.22 82.27 C 48.89 81.68, 47.63 80.13, 46.78 78.52 C 45.93 76.9, 45.16 74.56, 45.13 72.58 C 45.11 70.61, 45.76 68.24, 46.62 66.65 C 47.48 65.07, 48.93 63.66, 50.28 63.06 C 51.63 62.46, 53.35 62.45, 54.72 63.05 C 56.1 63.65, 57.66 65.05, 58.52 66.65 C 59.39 68.24, 59.95 70.66, 59.92 72.64 Z" fill="#8d5a3b" stroke="none" transform="translate(0.34,-0.25)"/><path d="M 59.92 72.64 C 59.89 74.61, 59.22 76.93, 58.36 78.5 C 57.51 80.08, 56.13 81.45, 54.77 82.07 C 53.42 82.7, 51.55 82.87, 50.22 82.27 C 48.89 81.68, 47.63 80.13, 46.78 78.52 C 45.93 76.9, 45.16 74.56, 45.13 72.58 C 45.11 70.61, 45.76 68.24, 46.62 66.65 C 47.48 65.07, 48.93 63.66, 50.28 63.06 C 51.63 62.46, 53.35 62.45, 54.72 63.05 C 56.1 63.65, 57.66 65.05, 58.52 66.65 C 59.39 68.24, 59.95 70.66, 59.92 72.64 Z" fill="none" stroke="#1a1a1a" stroke-width="5.66" stroke-linecap="round" stroke-linejoin="round"/><path d="M 154.8 72.62 C 154.8 74.59, 154.16 76.87, 153.31 78.5 C 152.46 80.12, 151.07 81.75, 149.72 82.37 C 148.38 82.99, 146.62 82.83, 145.24 82.2 C 143.87 81.57, 142.3 80.18, 141.45 78.58 C 140.61 76.98, 140.15 74.59, 140.17 72.6 C 140.19 70.61, 140.72 68.23, 141.57 66.65 C 142.41 65.06, 143.87 63.71, 145.23 63.1 C 146.59 62.49, 148.39 62.39, 149.74 62.99 C 151.09 63.58, 152.46 65.08, 153.31 66.68 C 154.15 68.29, 154.8 70.65, 154.8 72.62 Z" fill="#8d5a3b" stroke="none" transform="translate(0.34,-0.25)"/><path d="M 154.8 72.62 C 154.8 74.59, 154.16 76.87, 153.31 78.5 C 152.46 80.12, 151.07 81.75, 149.72 82.37 C 148.38 82.99, 146.62 82.83, 145.24 82.2 C 143.87 81.57, 142.3 80.18, 141.45 78.58 C 140.61 76.98, 140.15 74.59, 140.17 72.6 C 140.19 70.61, 140.72 68.23, 141.57 66.65 C 142.41 65.06, 143.87 63.71, 145.23 63.1 C 146.59 62.49, 148.39 62.39, 149.74 62.99 C 151.09 63.58, 152.46 65.08, 153.31 66.68 C 154.15 68.29, 154.8 70.65, 154.8 72.62 Z" fill="none" stroke="#1a1a1a" stroke-width="3.44" stroke-linecap="round" stroke-linejoin="round"/>
      <path d="M 143.27 75.89 C 142.69 79.53, 140.14 82.88, 139.64 86.52 C 139.14 90.16, 140.74 94.25, 140.26 97.73 C 139.77 101.21, 138.05 104.24, 136.73 107.39 C 135.41 110.54, 134.11 113.97, 132.34 116.62 C 130.57 119.27, 128.02 121, 126.11 123.28 C 124.2 125.56, 122.96 128.63, 120.86 130.31 C 118.76 131.98, 115.74 131.97, 113.49 133.32 C 111.25 134.67, 109.63 137.78, 107.39 138.4 C 105.14 139.03, 102.45 137.08, 100 137.09 C 97.55 137.1, 94.96 139.08, 92.71 138.45 C 90.47 137.82, 88.78 134.59, 86.51 133.31 C 84.24 132.03, 81.56 132.15, 79.08 130.78 C 76.6 129.4, 73.52 127.43, 71.63 125.08 C 69.74 122.73, 69.38 119.54, 67.75 116.68 C 66.13 113.82, 63.31 111.09, 61.88 107.93 C 60.45 104.77, 59.97 101.23, 59.17 97.72 C 58.38 94.22, 57.38 90.56, 57.11 86.9 C 56.83 83.25, 57.44 79.5, 57.55 75.81 C 57.66 72.12, 57.27 68.38, 57.77 64.77 C 58.27 61.17, 59.31 57.48, 60.57 54.19 C 61.83 50.89, 64.14 48.2, 65.33 45 C 66.52 41.81, 66.65 38.1, 67.7 35.02 C 68.76 31.94, 69.81 28.95, 71.64 26.53 C 73.48 24.11, 76.42 22.23, 78.71 20.51 C 81.01 18.8, 83.07 17.56, 85.39 16.24 C 87.71 14.92, 90.18 13.48, 92.61 12.61 C 95.05 11.74, 97.56 10.93, 100 11.03 C 102.44 11.13, 104.83 12.33, 107.26 13.2 C 109.69 14.07, 112.29 15.01, 114.6 16.26 C 116.9 17.51, 119.08 18.75, 121.07 20.7 C 123.06 22.65, 124.52 25.66, 126.55 27.97 C 128.58 30.27, 131.61 31.8, 133.25 34.53 C 134.89 37.26, 135.37 41.09, 136.38 44.35 C 137.38 47.6, 138.13 50.68, 139.26 54.06 C 140.38 57.45, 142.47 61.03, 143.14 64.67 C 143.81 68.31, 143.86 72.25, 143.27 75.89 Z" fill="#8d5a3b" stroke="none" transform="translate(2.01,-1.47)"/><path d="M 143.27 75.89 C 142.69 79.53, 140.14 82.88, 139.64 86.52 C 139.14 90.16, 140.74 94.25, 140.26 97.73 C 139.77 101.21, 138.05 104.24, 136.73 107.39 C 135.41 110.54, 134.11 113.97, 132.34 116.62 C 130.57 119.27, 128.02 121, 126.11 123.28 C 124.2 125.56, 122.96 128.63, 120.86 130.31 C 118.76 131.98, 115.74 131.97, 113.49 133.32 C 111.25 134.67, 109.63 137.78, 107.39 138.4 C 105.14 139.03, 102.45 137.08, 100 137.09 C 97.55 137.1, 94.96 139.08, 92.71 138.45 C 90.47 137.82, 88.78 134.59, 86.51 133.31 C 84.24 132.03, 81.56 132.15, 79.08 130.78 C 76.6 129.4, 73.52 127.43, 71.63 125.08 C 69.74 122.73, 69.38 119.54, 67.75 116.68 C 66.13 113.82, 63.31 111.09, 61.88 107.93 C 60.45 104.77, 59.97 101.23, 59.17 97.72 C 58.38 94.22, 57.38 90.56, 57.11 86.9 C 56.83 83.25, 57.44 79.5, 57.55 75.81 C 57.66 72.12, 57.27 68.38, 57.77 64.77 C 58.27 61.17, 59.31 57.48, 60.57 54.19 C 61.83 50.89, 64.14 48.2, 65.33 45 C 66.52 41.81, 66.65 38.1, 67.7 35.02 C 68.76 31.94, 69.81 28.95, 71.64 26.53 C 73.48 24.11, 76.42 22.23, 78.71 20.51 C 81.01 18.8, 83.07 17.56, 85.39 16.24 C 87.71 14.92, 90.18 13.48, 92.61 12.61 C 95.05 11.74, 97.56 10.93, 100 11.03 C 102.44 11.13, 104.83 12.33, 107.26 13.2 C 109.69 14.07, 112.29 15.01, 114.6 16.26 C 116.9 17.51, 119.08 18.75, 121.07 20.7 C 123.06 22.65, 124.52 25.66, 126.55 27.97 C 128.58 30.27, 131.61 31.8, 133.25 34.53 C 134.89 37.26, 135.37 41.09, 136.38 44.35 C 137.38 47.6, 138.13 50.68, 139.26 54.06 C 140.38 57.45, 142.47 61.03, 143.14 64.67 C 143.81 68.31, 143.86 72.25, 143.27 75.89 Z" fill="none" stroke="#1a1a1a" stroke-width="5.43" stroke-linecap="round" stroke-linejoin="round"/>
      <g id="hair_front"><g id="hair_cap"><path d="M 67.15 35.76 C 63.56 35.65, 66.57 36.25, 67.49 34.85 C 68.42 33.45, 70.82 29.75, 72.69 27.36 C 74.56 24.98, 76.58 22.33, 78.73 20.54 C 80.88 18.75, 83.28 17.9, 85.6 16.62 C 87.91 15.34, 90.21 13.57, 92.61 12.87 C 95.01 12.18, 97.54 12.43, 100 12.45 C 102.46 12.48, 104.95 12.34, 107.35 13.03 C 109.75 13.73, 112.09 15.37, 114.4 16.63 C 116.71 17.89, 119.14 18.74, 121.21 20.59 C 123.29 22.44, 124.9 25.39, 126.82 27.75 C 128.75 30.1, 131.74 33.38, 132.76 34.72 C 133.78 36.06, 136.57 35.53, 132.94 35.78 C 129.31 36.02, 118.3 36.25, 110.98 36.21 C 103.66 36.17, 96.32 35.61, 89.02 35.53 C 81.71 35.46, 70.74 35.87, 67.15 35.76 Z" fill="#8a6a3f" stroke="none" transform="translate(0.54,-0.39)"/><path d="M 67.15 35.76 C 63.56 35.65, 66.57 36.25, 67.49 34.85 C 68.42 33.45, 70.82 29.75, 72.69 27.36 C 74.56 24.98, 76.58 22.33, 78.73 20.54 C 80.88 18.75, 83.28 17.9, 85.6 16.62 C 87.91 15.34, 90.21 13.57, 92.61 12.87 C 95.01 12.18, 97.54 12.43, 100 12.45 C 102.46 12.48, 104.95 12.34, 107.35 13.03 C 109.75 13.73, 112.09 15.37, 114.4 16.63 C 116.71 17.89, 119.14 18.74, 121.21 20.59 C 123.29 22.44, 124.9 25.39, 126.82 27.75 C 128.75 30.1, 131.74 33.38, 132.76 34.72 C 133.78 36.06, 136.57 35.53, 132.94 35.78 C 129.31 36.02, 118.3 36.25, 110.98 36.21 C 103.66 36.17, 96.32 35.61, 89.02 35.53 C 81.71 35.46, 70.74 35.87, 67.15 35.76 Z" fill="none" stroke="#1a1a1a" stroke-width="4.48" stroke-linecap="round" stroke-linejoin="round"/></g></g>
      <g id="headwear"></g>
      
      <path d="M 108.96 88.32 C 108.95 89.67, 108.65 91.27, 107.92 92.44 C 107.18 93.61, 105.86 94.68, 104.54 95.34 C 103.22 95.99, 101.49 96.39, 99.99 96.37 C 98.48 96.35, 96.81 95.9, 95.51 95.22 C 94.21 94.55, 92.92 93.48, 92.17 92.34 C 91.42 91.19, 91.03 89.71, 91.02 88.36 C 91 87.02, 91.36 85.44, 92.1 84.28 C 92.84 83.12, 94.16 82.06, 95.47 81.41 C 96.79 80.76, 98.47 80.4, 100 80.38 C 101.52 80.37, 103.3 80.66, 104.62 81.32 C 105.95 81.98, 107.22 83.16, 107.94 84.33 C 108.66 85.49, 108.96 86.97, 108.96 88.32 Z" fill="#8d5a3b" stroke="none" transform="translate(0.38,-0.28)"/><path d="M 108.96 88.32 C 108.95 89.67, 108.65 91.27, 107.92 92.44 C 107.18 93.61, 105.86 94.68, 104.54 95.34 C 103.22 95.99, 101.49 96.39, 99.99 96.37 C 98.48 96.35, 96.81 95.9, 95.51 95.22 C 94.21 94.55, 92.92 93.48, 92.17 92.34 C 91.42 91.19, 91.03 89.71, 91.02 88.36 C 91 87.02, 91.36 85.44, 92.1 84.28 C 92.84 83.12, 94.16 82.06, 95.47 81.41 C 96.79 80.76, 98.47 80.4, 100 80.38 C 101.52 80.37, 103.3 80.66, 104.62 81.32 C 105.95 81.98, 107.22 83.16, 107.94 84.33 C 108.66 85.49, 108.96 86.97, 108.96 88.32 Z" fill="none" stroke="#1a1a1a" stroke-width="5.14" stroke-linecap="round" stroke-linejoin="round"/>
        <g id="brows_neutral"><path d="M 65.21996497722209 46.830134896887145 L 93.69399990328658 46.830134896887145" stroke="#4c3e2b" stroke-width="6.5" fill="none" stroke-linecap="round"/><path d="M 106.30600009671342 46.830134896887145 L 134.78003502277792 46.830134896887145" stroke="#4c3e2b" stroke-width="6.5" fill="none" stroke-linecap="round"/></g>
        <g id="brows_flat"><path d="M 65.21996497722209 49.830134896887145 L 93.69399990328658 49.830134896887145" stroke="#4c3e2b" stroke-width="6.5" fill="none" stroke-linecap="round"/><path d="M 106.30600009671342 49.830134896887145 L 134.78003502277792 49.830134896887145" stroke="#4c3e2b" stroke-width="6.5" fill="none" stroke-linecap="round"/></g>
        <g id="brows_angry"><path d="M 65.21996497722209 60.830134896887145 L 93.69399990328658 40.830134896887145" stroke="#4c3e2b" stroke-width="6.5" fill="none" stroke-linecap="round"/><path d="M 106.30600009671342 40.830134896887145 L 134.78003502277792 60.830134896887145" stroke="#4c3e2b" stroke-width="6.5" fill="none" stroke-linecap="round"/></g>
        <g id="brows_raised"><path d="M 65.21996497722209 33.830134896887145 L 93.69399990328658 45.830134896887145" stroke="#4c3e2b" stroke-width="6.5" fill="none" stroke-linecap="round"/><path d="M 106.30600009671342 45.830134896887145 L 134.78003502277792 33.830134896887145" stroke="#4c3e2b" stroke-width="6.5" fill="none" stroke-linecap="round"/></g>
        <g id="brows_sad"><path d="M 65.21996497722209 36.830134896887145 L 93.69399990328658 58.830134896887145" stroke="#4c3e2b" stroke-width="6.5" fill="none" stroke-linecap="round"/><path d="M 106.30600009671342 58.830134896887145 L 134.78003502277792 36.830134896887145" stroke="#4c3e2b" stroke-width="6.5" fill="none" stroke-linecap="round"/></g>
        <g id="brows_confused"><path d="M 65.21996497722209 30.830134896887145 L 93.69399990328658 54.830134896887145" stroke="#4c3e2b" stroke-width="6.5" fill="none" stroke-linecap="round"/><path d="M 106.30600009671342 45.830134896887145 L 134.78003502277792 39.830134896887145" stroke="#4c3e2b" stroke-width="6.5" fill="none" stroke-linecap="round"/></g>
        <g id="brows_worried"><path d="M 65.21996497722209 37.830134896887145 L 93.69399990328658 51.830134896887145" stroke="#4c3e2b" stroke-width="6.5" fill="none" stroke-linecap="round"/><path d="M 106.30600009671342 51.830134896887145 L 134.78003502277792 37.830134896887145" stroke="#4c3e2b" stroke-width="6.5" fill="none" stroke-linecap="round"/></g>
        <g id="brows_single"><path d="M 65.21996497722209 25.830134896887145 L 93.69399990328658 57.830134896887145" stroke="#4c3e2b" stroke-width="6.5" fill="none" stroke-linecap="round"/><path d="M 106.30600009671342 43.830134896887145 L 134.78003502277792 39.830134896887145" stroke="#4c3e2b" stroke-width="6.5" fill="none" stroke-linecap="round"/></g>
        <g id="eyes_open"><ellipse cx="79.45698244025434" cy="69.42030688615813" rx="11.389613970425797" ry="11.389613970425797" fill="#ffffff" stroke="#1a1a1a" stroke-width="2"/><circle cx="79.45698244025434" cy="69.42030688615813" r="4.783637867578834" fill="#1a1a1a"/><ellipse cx="120.54301755974566" cy="69.42030688615813" rx="11.389613970425797" ry="11.389613970425797" fill="#ffffff" stroke="#1a1a1a" stroke-width="2"/><circle cx="120.54301755974566" cy="69.42030688615813" r="4.783637867578834" fill="#1a1a1a"/></g>
        <g id="eyes_half"><ellipse cx="79.45698244025434" cy="69.42030688615813" rx="11.389613970425797" ry="11.389613970425797" fill="#ffffff" stroke="#1a1a1a" stroke-width="2"/><circle cx="79.45698244025434" cy="71.47043740083477" r="4.783637867578834" fill="#1a1a1a"/><ellipse cx="120.54301755974566" cy="69.42030688615813" rx="11.389613970425797" ry="11.389613970425797" fill="#ffffff" stroke="#1a1a1a" stroke-width="2"/><circle cx="120.54301755974566" cy="71.47043740083477" r="4.783637867578834" fill="#1a1a1a"/><rect x="67.06736846982854" y="56.03069291573233" width="24.779227940851595" height="13.389613970425797" fill="#8d5a3b"/><path d="M 68.06736846982854 69.42030688615813 L 90.84659641068014 69.42030688615813" stroke="#1a1a1a" stroke-width="2.5" stroke-linecap="round"/><rect x="108.15340358931986" y="56.03069291573233" width="24.779227940851595" height="13.389613970425797" fill="#8d5a3b"/><path d="M 109.15340358931986 69.42030688615813 L 131.93263153017145 69.42030688615813" stroke="#1a1a1a" stroke-width="2.5" stroke-linecap="round"/></g>
        <g id="eyes_wide"><ellipse cx="79.45698244025434" cy="69.42030688615813" rx="11.389613970425797" ry="15.375978860074827" fill="#ffffff" stroke="#1a1a1a" stroke-width="2"/><circle cx="79.45698244025434" cy="69.42030688615813" r="3.4442192646567604" fill="#1a1a1a"/><ellipse cx="120.54301755974566" cy="69.42030688615813" rx="11.389613970425797" ry="15.375978860074827" fill="#ffffff" stroke="#1a1a1a" stroke-width="2"/><circle cx="120.54301755974566" cy="69.42030688615813" r="3.4442192646567604" fill="#1a1a1a"/></g>
        <g id="eyes_closed"><path d="M 68.06736846982854 69.42030688615813 Q 79.45698244025434 77.3930366654562 90.84659641068014 69.42030688615813" stroke="#1a1a1a" stroke-width="3" fill="none" stroke-linecap="round"/><path d="M 109.15340358931986 69.42030688615813 Q 120.54301755974566 77.3930366654562 131.93263153017145 69.42030688615813" stroke="#1a1a1a" stroke-width="3" fill="none" stroke-linecap="round"/></g>
        <g id="eyes_squint"><ellipse cx="79.45698244025434" cy="69.42030688615813" rx="11.389613970425797" ry="4.783637867578834" fill="#ffffff" stroke="#1a1a1a" stroke-width="2"/><circle cx="79.45698244025434" cy="69.42030688615813" r="4.305274080820951" fill="#1a1a1a"/><ellipse cx="120.54301755974566" cy="69.42030688615813" rx="11.389613970425797" ry="4.783637867578834" fill="#ffffff" stroke="#1a1a1a" stroke-width="2"/><circle cx="120.54301755974566" cy="69.42030688615813" r="4.305274080820951" fill="#1a1a1a"/><rect x="67.06736846982854" y="62.6366690185793" width="24.779227940851595" height="4.391818933789417" fill="#8d5a3b"/><path d="M 68.06736846982854 67.0284879523687 L 90.84659641068014 67.0284879523687" stroke="#1a1a1a" stroke-width="2.5" stroke-linecap="round"/><rect x="108.15340358931986" y="62.6366690185793" width="24.779227940851595" height="4.391818933789417" fill="#8d5a3b"/><path d="M 109.15340358931986 67.0284879523687 L 131.93263153017145 67.0284879523687" stroke="#1a1a1a" stroke-width="2.5" stroke-linecap="round"/><path d="M 68.06736846982854 72.0513077133265 L 90.84659641068014 72.0513077133265" stroke="#1a1a1a" stroke-width="2.2" stroke-linecap="round"/><path d="M 109.15340358931986 72.0513077133265 L 131.93263153017145 72.0513077133265" stroke="#1a1a1a" stroke-width="2.2" stroke-linecap="round"/></g>
        <g id="eyes_side"><ellipse cx="79.45698244025434" cy="69.42030688615813" rx="11.389613970425797" ry="11.389613970425797" fill="#ffffff" stroke="#1a1a1a" stroke-width="2"/><circle cx="84.6962048666502" cy="69.42030688615813" r="4.783637867578834" fill="#1a1a1a"/><ellipse cx="120.54301755974566" cy="69.42030688615813" rx="11.389613970425797" ry="11.389613970425797" fill="#ffffff" stroke="#1a1a1a" stroke-width="2"/><circle cx="125.78223998614153" cy="69.42030688615813" r="4.783637867578834" fill="#1a1a1a"/></g>
      
        <g id="mouth_A"><path d="M 73.4165245897416 108.97651829662263 Q 100 111.97651829662263 126.5834754102584 108.97651829662263" stroke="#1a1a1a" stroke-width="4" fill="none" stroke-linecap="round"/></g>
        <g id="mouth_B"><ellipse cx="100" cy="108.97651829662263" rx="20.73511082000155" ry="4.785025573846512" fill="#4a1f1f"/></g>
        <g id="mouth_C"><ellipse cx="100" cy="108.97651829662263" rx="19.671771803591213" ry="9.570051147693023" fill="#4a1f1f"/></g>
        <g id="mouth_D"><ellipse cx="100" cy="110.97651829662263" rx="21.798449836411883" ry="15.950085246155037" fill="#4a1f1f"/><ellipse cx="100" cy="120.67324747713633" rx="11.165059672308526" ry="5.31669508205168" fill="#c96a6a"/></g>
        <g id="mouth_E"><ellipse cx="100" cy="108.97651829662263" rx="12.228398688718864" ry="10.101720655898191" fill="#4a1f1f"/></g>
        <g id="mouth_F"><ellipse cx="100" cy="108.97651829662263" rx="7.975042623077519" ry="8.506712131282688" fill="#4a1f1f"/></g>
        <g id="mouth_G"><ellipse cx="100" cy="108.97651829662263" rx="17.545093770770542" ry="6.380034098462016" fill="#4a1f1f"/><rect x="86.17659278666564" y="102.59648419816061" width="27.646814426668733" height="4.253356065641344" fill="#f2ede4"/></g>
        <g id="mouth_H"><ellipse cx="100" cy="108.97651829662263" rx="16.481754754360207" ry="11.165059672308526" fill="#4a1f1f"/><ellipse cx="100" cy="111.1031963294433" rx="6.380034098462016" ry="5.848364590256848" fill="#c96a6a"/></g>
        <g id="mouth_X"><path d="M 78.73321967179328 108.97651829662263 L 121.26678032820672 108.97651829662263" stroke="#1a1a1a" stroke-width="3.5" fill="none" stroke-linecap="round"/></g>
        <g id="mouth_smile"><path d="M 75.54320262256228 105.78650124739163 Q 100 119.60990846072599 124.45679737743772 105.78650124739163" stroke="#1a1a1a" stroke-width="4" fill="none" stroke-linecap="round"/></g>
        <g id="mouth_frown"><path d="M 78.20155016358811 113.22987436226397 Q 100 101.53314518175027 121.79844983641189 113.22987436226397" stroke="#1a1a1a" stroke-width="4" fill="none" stroke-linecap="round"/></g>
        <g id="mouth_smirk"><path d="M 79.26488917999845 111.1031963294433 Q 102.65834754102585 113.22987436226397 122.86178885282223 102.59648419816061" stroke="#1a1a1a" stroke-width="4" fill="none" stroke-linecap="round"/></g>
        <g id="mouth_grimace"><path d="M 76.07487213076745 105.52066649328904 L 123.92512786923255 105.52066649328904 L 120.09710741015535 115.88822190328982 L 79.90289258984465 115.88822190328982 Z" fill="#4a1f1f" stroke="#1a1a1a" stroke-width="2.5" stroke-linejoin="round"/><rect x="77.03187724553675" y="105.52066649328904" width="45.93624550892651" height="3.5940858754669356" fill="#f2ede4"/><path d="M 83.73091304892186 105.52066649328904 L 83.73091304892186 109.11475236875597" stroke="#1a1a1a" stroke-width="1.2" opacity="0.5"/><path d="M 91.86545652446092 105.52066649328904 L 91.86545652446092 109.11475236875597" stroke="#1a1a1a" stroke-width="1.2" opacity="0.5"/><path d="M 100 105.52066649328904 L 100 109.11475236875597" stroke="#1a1a1a" stroke-width="1.2" opacity="0.5"/><path d="M 108.13454347553908 105.52066649328904 L 108.13454347553908 109.11475236875597" stroke="#1a1a1a" stroke-width="1.2" opacity="0.5"/><path d="M 116.26908695107814 105.52066649328904 L 116.26908695107814 109.11475236875597" stroke="#1a1a1a" stroke-width="1.2" opacity="0.5"/></g>
        <g id="mouth_oh"><ellipse cx="100" cy="110.97651829662263" rx="11.696729180513696" ry="13.823407213334367" fill="#4a1f1f"/></g>
        <g id="mouth_flat"><path d="M 77.13821114717777 108.97651829662263 L 122.86178885282223 108.97651829662263" stroke="#1a1a1a" stroke-width="4.5" fill="none" stroke-linecap="round"/></g>
    </g>
  </g>
</svg>
