<svg xmlns="http://www.w3.org/2000/svg" viewBox="0 0 200 400" width="200" height="400" data-rig="mark" data-build="squat">
  <g id="torso">
    <g id="leg_L"><path d="M 73.72 205.76 C 74.75 204.69, 72.87 204.55, 73.88 205.59 C 74.9 206.63, 77.8 209.9, 79.8 211.97 C 81.8 214.05, 84.79 207.27, 85.86 218.06 C 86.93 228.84, 86.23 257.15, 86.22 276.7 C 86.2 296.25, 85.85 315.83, 85.79 335.35 C 85.74 354.88, 86.86 383.06, 85.87 393.85 C 84.88 404.65, 81.88 398.06, 79.85 400.14 C 77.83 402.21, 74.73 405.28, 73.72 406.3 C 72.71 407.31, 74.86 407.21, 73.78 406.23 C 72.71 405.26, 69.34 402.48, 67.27 400.45 C 65.21 398.41, 62.39 404.85, 61.4 394 C 60.41 383.15, 61.4 354.9, 61.33 335.35 C 61.27 315.8, 61 296.27, 61 276.7 C 61 257.14, 60.22 228.75, 61.33 217.97 C 62.44 207.19, 65.62 214.06, 67.68 212.02 C 69.75 209.99, 72.68 206.83, 73.72 205.76 Z" fill="#3a3f4a" stroke="none" transform="translate(0.58,-0.42)"/><path d="M 73.72 205.76 C 74.75 204.69, 72.87 204.55, 73.88 205.59 C 74.9 206.63, 77.8 209.9, 79.8 211.97 C 81.8 214.05, 84.79 207.27, 85.86 218.06 C 86.93 228.84, 86.23 257.15, 86.22 276.7 C 86.2 296.25, 85.85 315.83, 85.79 335.35 C 85.74 354.88, 86.86 383.06, 85.87 393.85 C 84.88 404.65, 81.88 398.06, 79.85 400.14 C 77.83 402.21, 74.73 405.28, 73.72 406.3 C 72.71 407.31, 74.86 407.21, 73.78 406.23 C 72.71 405.26, 69.34 402.48, 67.27 400.45 C 65.21 398.41, 62.39 404.85, 61.4 394 C 60.41 383.15, 61.4 354.9, 61.33 335.35 C 61.27 315.8, 61 296.27, 61 276.7 C 61 257.14, 60.22 228.75, 61.33 217.97 C 62.44 207.19, 65.62 214.06, 67.68 212.02 C 69.75 209.99, 72.68 206.83, 73.72 205.76 Z" fill="none" stroke="#1a1a1a" stroke-width="5.4" stroke-linecap="round" stroke-linejoin="round"/><path d="M 100.85 394.05 C 100.83 396.07, 99.22 398.3, 96.88 399.97 C 94.55 401.63, 90.58 403.39, 86.84 404.03 C 83.09 404.66, 78.14 404.42, 74.4 403.75 C 70.67 403.07, 66.74 401.59, 64.43 399.98 C 62.13 398.37, 60.61 396.12, 60.58 394.09 C 60.55 392.06, 61.95 389.48, 64.25 387.81 C 66.54 386.15, 70.6 384.73, 74.37 384.09 C 78.15 383.46, 83.13 383.37, 86.91 383.99 C 90.68 384.62, 94.7 386.18, 97.03 387.86 C 99.35 389.54, 100.88 392.03, 100.85 394.05 Z" fill="#2b2f38" stroke="none" transform="translate(0.46,-0.34)"/><path d="M 100.85 394.05 C 100.83 396.07, 99.22 398.3, 96.88 399.97 C 94.55 401.63, 90.58 403.39, 86.84 404.03 C 83.09 404.66, 78.14 404.42, 74.4 403.75 C 70.67 403.07, 66.74 401.59, 64.43 399.98 C 62.13 398.37, 60.61 396.12, 60.58 394.09 C 60.55 392.06, 61.95 389.48, 64.25 387.81 C 66.54 386.15, 70.6 384.73, 74.37 384.09 C 78.15 383.46, 83.13 383.37, 86.91 383.99 C 90.68 384.62, 94.7 386.18, 97.03 387.86 C 99.35 389.54, 100.88 392.03, 100.85 394.05 Z" fill="none" stroke="#1a1a1a" stroke-width="4.54" stroke-linecap="round" stroke-linejoin="round"/></g>
    <g id="leg_R"><path d="M 126.28 205.8 C 127.3 204.78, 125.16 204.83, 126.25 205.79 C 127.33 206.75, 130.77 209.5, 132.79 211.54 C 134.82 213.59, 137.36 207.2, 138.39 218.06 C 139.42 228.92, 138.99 257.15, 138.99 276.7 C 138.99 296.25, 138.46 315.82, 138.37 335.35 C 138.29 354.89, 139.53 383.16, 138.5 393.92 C 137.48 404.69, 134.27 397.93, 132.23 399.95 C 130.19 401.97, 127.25 405.03, 126.28 406.06 C 125.32 407.09, 127.54 407.05, 126.45 406.13 C 125.36 405.21, 121.8 402.57, 119.73 400.55 C 117.66 398.53, 115.05 404.87, 114.03 394 C 113.01 383.13, 113.6 354.9, 113.61 335.35 C 113.62 315.8, 114.02 296.26, 114.07 276.7 C 114.13 257.15, 112.95 228.83, 113.96 218.03 C 114.98 207.24, 118.1 213.97, 120.15 211.93 C 122.21 209.89, 125.27 206.83, 126.28 205.8 Z" fill="#3a3f4a" stroke="none" transform="translate(0.58,-0.42)"/><path d="M 126.28 205.8 C 127.3 204.78, 125.16 204.83, 126.25 205.79 C 127.33 206.75, 130.77 209.5, 132.79 211.54 C 134.82 213.59, 137.36 207.2, 138.39 218.06 C 139.42 228.92, 138.99 257.15, 138.99 276.7 C 138.99 296.25, 138.46 315.82, 138.37 335.35 C 138.29 354.89, 139.53 383.16, 138.5 393.92 C 137.48 404.69, 134.27 397.93, 132.23 399.95 C 130.19 401.97, 127.25 405.03, 126.28 406.06 C 125.32 407.09, 127.54 407.05, 126.45 406.13 C 125.36 405.21, 121.8 402.57, 119.73 400.55 C 117.66 398.53, 115.05 404.87, 114.03 394 C 113.01 383.13, 113.6 354.9, 113.61 335.35 C 113.62 315.8, 114.02 296.26, 114.07 276.7 C 114.13 257.15, 112.95 228.83, 113.96 218.03 C 114.98 207.24, 118.1 213.97, 120.15 211.93 C 122.21 209.89, 125.27 206.83, 126.28 205.8 Z" fill="none" stroke="#1a1a1a" stroke-width="4.31" stroke-linecap="round" stroke-linejoin="round"/><path d="M 153.23 393.93 C 153.21 395.94, 151.74 398.3, 149.44 399.95 C 147.13 401.59, 143.15 403.17, 139.4 403.8 C 135.66 404.44, 130.69 404.39, 126.96 403.75 C 123.23 403.11, 119.36 401.59, 117.02 399.96 C 114.69 398.33, 112.99 396, 112.95 393.97 C 112.91 391.93, 114.46 389.38, 116.79 387.76 C 119.12 386.14, 123.16 384.88, 126.94 384.25 C 130.71 383.63, 135.69 383.42, 139.46 384.03 C 143.22 384.63, 147.23 386.25, 149.53 387.9 C 151.82 389.55, 153.24 391.92, 153.23 393.93 Z" fill="#2b2f38" stroke="none" transform="translate(0.46,-0.34)"/><path d="M 153.23 393.93 C 153.21 395.94, 151.74 398.3, 149.44 399.95 C 147.13 401.59, 143.15 403.17, 139.4 403.8 C 135.66 404.44, 130.69 404.39, 126.96 403.75 C 123.23 403.11, 119.36 401.59, 117.02 399.96 C 114.69 398.33, 112.99 396, 112.95 393.97 C 112.91 391.93, 114.46 389.38, 116.79 387.76 C 119.12 386.14, 123.16 384.88, 126.94 384.25 C 130.71 383.63, 135.69 383.42, 139.46 384.03 C 143.22 384.63, 147.23 386.25, 149.53 387.9 C 151.82 389.55, 153.24 391.92, 153.23 393.93 Z" fill="none" stroke="#1a1a1a" stroke-width="4.74" stroke-linecap="round" stroke-linejoin="round"/></g>
    <path d="M 85.24 113.69 C 86.89 111.66, 91.8 114.32, 95.08 114.42 C 98.36 114.52, 101.66 114.4, 104.92 114.29 C 108.18 114.19, 112.91 111.76, 114.64 113.81 C 116.36 115.86, 115.29 122.34, 115.26 126.6 C 115.23 130.86, 114.55 135.16, 114.47 139.39 C 114.38 143.61, 116.35 149.87, 114.76 151.95 C 113.17 154.03, 108.2 151.95, 104.92 151.89 C 101.64 151.83, 98.38 151.53, 95.08 151.58 C 91.78 151.63, 86.8 154.21, 85.1 152.18 C 83.41 150.14, 84.9 143.65, 84.91 139.39 C 84.93 135.13, 85.15 130.88, 85.21 126.6 C 85.26 122.32, 83.6 115.72, 85.24 113.69 Z" fill="#d9a066" stroke="none" transform="translate(0.7,-0.51)"/><path d="M 85.24 113.69 C 86.89 111.66, 91.8 114.32, 95.08 114.42 C 98.36 114.52, 101.66 114.4, 104.92 114.29 C 108.18 114.19, 112.91 111.76, 114.64 113.81 C 116.36 115.86, 115.29 122.34, 115.26 126.6 C 115.23 130.86, 114.55 135.16, 114.47 139.39 C 114.38 143.61, 116.35 149.87, 114.76 151.95 C 113.17 154.03, 108.2 151.95, 104.92 151.89 C 101.64 151.83, 98.38 151.53, 95.08 151.58 C 91.78 151.63, 86.8 154.21, 85.1 152.18 C 83.41 150.14, 84.9 143.65, 84.91 139.39 C 84.93 135.13, 85.15 130.88, 85.21 126.6 C 85.26 122.32, 83.6 115.72, 85.24 113.69 Z" fill="none" stroke="#1a1a1a" stroke-width="5.17" stroke-linecap="round" stroke-linejoin="round"/>
    <path d="M 163.32 188.29 C 162.87 191.68, 159.02 194.47, 158.25 197.99 C 157.47 201.51, 160.18 206.41, 158.67 209.42 C 157.16 212.43, 151.67 213.42, 149.18 216.07 C 146.69 218.72, 146.03 222.31, 143.71 225.32 C 141.39 228.33, 138.57 232.08, 135.27 234.13 C 131.96 236.18, 127.78 236.7, 123.89 237.62 C 120 238.53, 115.92 238.74, 111.91 239.64 C 107.9 240.53, 103.89 242.5, 99.84 242.97 C 95.79 243.43, 91.52 243.35, 87.61 242.41 C 83.7 241.48, 79.91 239.25, 76.39 237.37 C 72.86 235.49, 70.03 232.87, 66.47 231.11 C 62.91 229.35, 57.87 229.14, 55.03 226.82 C 52.18 224.5, 51.62 220.17, 49.39 217.18 C 47.15 214.2, 43.52 211.94, 41.63 208.89 C 39.74 205.83, 38.93 202.35, 38.04 198.84 C 37.16 195.34, 35.74 191.3, 36.34 187.87 C 36.94 184.43, 40.63 181.58, 41.64 178.22 C 42.66 174.85, 41.35 171.02, 42.44 167.67 C 43.52 164.31, 45.9 160.98, 48.15 158.09 C 50.41 155.21, 53.22 153.03, 55.97 150.35 C 58.72 147.66, 61.33 144.02, 64.67 141.99 C 68.01 139.95, 72.15 139.16, 76.03 138.15 C 79.92 137.15, 83.99 136.58, 87.98 135.95 C 91.97 135.32, 95.99 134.18, 99.97 134.38 C 103.94 134.57, 107.88 136.38, 111.82 137.12 C 115.76 137.87, 119.94 137.62, 123.62 138.85 C 127.3 140.07, 130.43 142.65, 133.89 144.49 C 137.35 146.32, 141.61 147.43, 144.39 149.86 C 147.17 152.29, 148.54 156.09, 150.59 159.06 C 152.65 162.04, 154.99 164.63, 156.72 167.73 C 158.45 170.82, 159.86 174.19, 160.96 177.62 C 162.06 181.05, 163.77 184.89, 163.32 188.29 Z" fill="#996b5b" stroke="none" transform="translate(2.55,-1.86)"/><path d="M 163.32 188.29 C 162.87 191.68, 159.02 194.47, 158.25 197.99 C 157.47 201.51, 160.18 206.41, 158.67 209.42 C 157.16 212.43, 151.67 213.42, 149.18 216.07 C 146.69 218.72, 146.03 222.31, 143.71 225.32 C 141.39 228.33, 138.57 232.08, 135.27 234.13 C 131.96 236.18, 127.78 236.7, 123.89 237.62 C 120 238.53, 115.92 238.74, 111.91 239.64 C 107.9 240.53, 103.89 242.5, 99.84 242.97 C 95.79 243.43, 91.52 243.35, 87.61 242.41 C 83.7 241.48, 79.91 239.25, 76.39 237.37 C 72.86 235.49, 70.03 232.87, 66.47 231.11 C 62.91 229.35, 57.87 229.14, 55.03 226.82 C 52.18 224.5, 51.62 220.17, 49.39 217.18 C 47.15 214.2, 43.52 211.94, 41.63 208.89 C 39.74 205.83, 38.93 202.35, 38.04 198.84 C 37.16 195.34, 35.74 191.3, 36.34 187.87 C 36.94 184.43, 40.63 181.58, 41.64 178.22 C 42.66 174.85, 41.35 171.02, 42.44 167.67 C 43.52 164.31, 45.9 160.98, 48.15 158.09 C 50.41 155.21, 53.22 153.03, 55.97 150.35 C 58.72 147.66, 61.33 144.02, 64.67 141.99 C 68.01 139.95, 72.15 139.16, 76.03 138.15 C 79.92 137.15, 83.99 136.58, 87.98 135.95 C 91.97 135.32, 95.99 134.18, 99.97 134.38 C 103.94 134.57, 107.88 136.38, 111.82 137.12 C 115.76 137.87, 119.94 137.62, 123.62 138.85 C 127.3 140.07, 130.43 142.65, 133.89 144.49 C 137.35 146.32, 141.61 147.43, 144.39 149.86 C 147.17 152.29, 148.54 156.09, 150.59 159.06 C 152.65 162.04, 154.99 164.63, 156.72 167.73 C 158.45 170.82, 159.86 174.19, 160.96 177.62 C 162.06 181.05, 163.77 184.89, 163.32 188.29 Z" fill="none" stroke="#1a1a1a" stroke-width="3.48" stroke-linecap="round" stroke-linejoin="round"/>
    
    <path d="M 66.79 136.11 C 69.63 135.12, 81.55 136.1, 88.93 136.15 C 96.31 136.19, 103.69 136.36, 111.07 136.37 C 118.45 136.38, 130.38 135.24, 133.22 136.19 C 136.06 137.14, 129.77 140.06, 128.1 142.08 C 126.44 144.09, 126.64 147.21, 123.24 148.27 C 119.85 149.32, 112.91 148.46, 107.75 148.43 C 102.58 148.4, 97.42 148.14, 92.25 148.1 C 87.09 148.05, 80.15 149.18, 76.76 148.17 C 73.38 147.16, 73.6 144.05, 71.94 142.04 C 70.28 140.03, 63.96 137.09, 66.79 136.11 Z" fill="#996b5b" stroke="none" transform="translate(0.28,-0.21)"/><path d="M 66.79 136.11 C 69.63 135.12, 81.55 136.1, 88.93 136.15 C 96.31 136.19, 103.69 136.36, 111.07 136.37 C 118.45 136.38, 130.38 135.24, 133.22 136.19 C 136.06 137.14, 129.77 140.06, 128.1 142.08 C 126.44 144.09, 126.64 147.21, 123.24 148.27 C 119.85 149.32, 112.91 148.46, 107.75 148.43 C 102.58 148.4, 97.42 148.14, 92.25 148.1 C 87.09 148.05, 80.15 149.18, 76.76 148.17 C 73.38 147.16, 73.6 144.05, 71.94 142.04 C 70.28 140.03, 63.96 137.09, 66.79 136.11 Z" fill="none" stroke="#1a1a1a" stroke-width="2.46" stroke-linecap="round" stroke-linejoin="round"/>
    <path d="M 77.88 138.17 C 79.09 140.74, 83.05 148.31, 85.09 153.6 C 87.14 158.89, 88.17 164.59, 90.16 169.9 C 92.14 175.22, 95.86 182.89, 97 185.49" fill="none" stroke="#3f6b6b" stroke-width="3.34" stroke-linecap="round"/><path d="M 121.74 138.02 C 120.98 140.77, 119.2 149.22, 117.19 154.53 C 115.19 159.83, 112.06 164.68, 109.7 169.84 C 107.33 175, 104.12 182.88, 103 185.49" fill="none" stroke="#3f6b6b" stroke-width="2.55" stroke-linecap="round"/><path d="M 92 185.45 C 93.69 185.15, 97.31 185.57, 100 185.55 C 102.69 185.54, 106.46 185.04, 108.13 185.36 C 109.8 185.68, 109.73 185.3, 110.01 187.49 C 110.3 189.67, 109.84 194.82, 109.84 198.49 C 109.84 202.15, 110.32 207.31, 110.01 209.5 C 109.71 211.69, 109.67 211.28, 108 211.62 C 106.33 211.97, 102.65 211.61, 100 211.57 C 97.35 211.53, 93.73 211.75, 92.08 211.4 C 90.44 211.05, 90.52 211.64, 90.11 209.49 C 89.71 207.33, 89.71 202.17, 89.67 198.49 C 89.63 194.8, 89.49 189.54, 89.88 187.36 C 90.27 185.19, 90.31 185.75, 92 185.45 Z" fill="#f2ede4" stroke="none" transform="translate(0.47,-0.35)"/><path d="M 92 185.45 C 93.69 185.15, 97.31 185.57, 100 185.55 C 102.69 185.54, 106.46 185.04, 108.13 185.36 C 109.8 185.68, 109.73 185.3, 110.01 187.49 C 110.3 189.67, 109.84 194.82, 109.84 198.49 C 109.84 202.15, 110.32 207.31, 110.01 209.5 C 109.71 211.69, 109.67 211.28, 108 211.62 C 106.33 211.97, 102.65 211.61, 100 211.57 C 97.35 211.53, 93.73 211.75, 92.08 211.4 C 90.44 211.05, 90.52 211.64, 90.11 209.49 C 89.71 207.33, 89.71 202.17, 89.67 198.49 C 89.63 194.8, 89.49 189.54, 89.88 187.36 C 90.27 185.19, 90.31 185.75, 92 185.45 Z" fill="none" stroke="#1a1a1a" stroke-width="2.78" stroke-linecap="round" stroke-linejoin="round"/><path d="M 94 193.13 C 96 193.19, 104 193.43, 106 193.49" fill="none" stroke="#1a1a1a" stroke-width="1.9" stroke-linecap="round"/>
    <g id="arm_L_upper">
      <path d="M 43.42 145.88 C 44.51 144.87, 42.6 144.65, 43.57 145.73 C 44.54 146.82, 47.22 150.3, 49.23 152.37 C 51.23 154.45, 54.57 155.01, 55.59 158.18 C 56.61 161.34, 55.33 166.96, 55.35 171.36 C 55.37 175.75, 55.65 180.12, 55.73 184.54 C 55.81 188.95, 56.93 194.68, 55.85 197.85 C 54.76 201.01, 51.29 201.49, 49.22 203.51 C 47.15 205.54, 44.38 208.95, 43.42 210.02 C 42.47 211.09, 44.48 211.02, 43.49 209.96 C 42.5 208.89, 39.56 205.69, 37.49 203.65 C 35.42 201.61, 32.08 200.91, 31.06 197.72 C 30.05 194.54, 31.37 188.93, 31.41 184.54 C 31.45 180.15, 31.33 175.73, 31.3 171.36 C 31.27 166.98, 30.27 161.54, 31.23 158.28 C 32.19 155.02, 35 153.85, 37.04 151.79 C 39.07 149.72, 42.34 146.89, 43.42 145.88 Z" fill="#996b5b" stroke="none" transform="translate(0.58,-0.42)"/><path d="M 43.42 145.88 C 44.51 144.87, 42.6 144.65, 43.57 145.73 C 44.54 146.82, 47.22 150.3, 49.23 152.37 C 51.23 154.45, 54.57 155.01, 55.59 158.18 C 56.61 161.34, 55.33 166.96, 55.35 171.36 C 55.37 175.75, 55.65 180.12, 55.73 184.54 C 55.81 188.95, 56.93 194.68, 55.85 197.85 C 54.76 201.01, 51.29 201.49, 49.22 203.51 C 47.15 205.54, 44.38 208.95, 43.42 210.02 C 42.47 211.09, 44.48 211.02, 43.49 209.96 C 42.5 208.89, 39.56 205.69, 37.49 203.65 C 35.42 201.61, 32.08 200.91, 31.06 197.72 C 30.05 194.54, 31.37 188.93, 31.41 184.54 C 31.45 180.15, 31.33 175.73, 31.3 171.36 C 31.27 166.98, 30.27 161.54, 31.23 158.28 C 32.19 155.02, 35 153.85, 37.04 151.79 C 39.07 149.72, 42.34 146.89, 43.42 145.88 Z" fill="none" stroke="#1a1a1a" stroke-width="3.39" stroke-linecap="round" stroke-linejoin="round"/>
      <g id="arm_L_fore">
        <path d="M 43.42 185.42 C 44.43 184.37, 42.48 184.31, 43.47 185.38 C 44.45 186.45, 47.24 189.78, 49.31 191.83 C 51.38 193.89, 54.88 194.86, 55.9 197.72 C 56.92 200.58, 55.38 205.23, 55.42 208.99 C 55.45 212.74, 56.05 216.48, 56.12 220.26 C 56.19 224.03, 56.92 228.73, 55.82 231.62 C 54.72 234.52, 51.59 235.59, 49.52 237.62 C 47.46 239.66, 44.43 242.81, 43.42 243.82 C 42.42 244.84, 44.54 244.76, 43.52 243.73 C 42.5 242.7, 39.39 239.68, 37.3 237.65 C 35.22 235.61, 31.95 234.42, 31 231.53 C 30.06 228.63, 31.69 224.01, 31.63 220.26 C 31.58 216.5, 30.78 212.75, 30.69 208.99 C 30.59 205.23, 29.96 200.55, 31.08 197.68 C 32.21 194.8, 35.37 193.77, 37.43 191.73 C 39.49 189.68, 42.42 186.48, 43.42 185.42 Z" fill="#996b5b" stroke="none" transform="translate(0.58,-0.42)"/><path d="M 43.42 185.42 C 44.43 184.37, 42.48 184.31, 43.47 185.38 C 44.45 186.45, 47.24 189.78, 49.31 191.83 C 51.38 193.89, 54.88 194.86, 55.9 197.72 C 56.92 200.58, 55.38 205.23, 55.42 208.99 C 55.45 212.74, 56.05 216.48, 56.12 220.26 C 56.19 224.03, 56.92 228.73, 55.82 231.62 C 54.72 234.52, 51.59 235.59, 49.52 237.62 C 47.46 239.66, 44.43 242.81, 43.42 243.82 C 42.42 244.84, 44.54 244.76, 43.52 243.73 C 42.5 242.7, 39.39 239.68, 37.3 237.65 C 35.22 235.61, 31.95 234.42, 31 231.53 C 30.06 228.63, 31.69 224.01, 31.63 220.26 C 31.58 216.5, 30.78 212.75, 30.69 208.99 C 30.59 205.23, 29.96 200.55, 31.08 197.68 C 32.21 194.8, 35.37 193.77, 37.43 191.73 C 39.49 189.68, 42.42 186.48, 43.42 185.42 Z" fill="none" stroke="#1a1a1a" stroke-width="3.35" stroke-linecap="round" stroke-linejoin="round"/>
        <path d="M 58.67 231.52 C 58.65 234.51, 57.49 238.08, 55.73 240.45 C 53.98 242.82, 50.95 244.85, 48.14 245.74 C 45.33 246.63, 41.67 246.7, 38.87 245.81 C 36.07 244.92, 33.08 242.79, 31.32 240.41 C 29.56 238.04, 28.35 234.52, 28.34 231.58 C 28.32 228.64, 29.51 225.21, 31.24 222.77 C 32.97 220.33, 35.93 217.87, 38.71 216.95 C 41.5 216.04, 45.1 216.34, 47.96 217.27 C 50.81 218.2, 54.05 220.16, 55.84 222.54 C 57.62 224.91, 58.68 228.54, 58.67 231.52 Z" fill="#d9a066" stroke="none" transform="translate(0.69,-0.5)"/><path d="M 58.67 231.52 C 58.65 234.51, 57.49 238.08, 55.73 240.45 C 53.98 242.82, 50.95 244.85, 48.14 245.74 C 45.33 246.63, 41.67 246.7, 38.87 245.81 C 36.07 244.92, 33.08 242.79, 31.32 240.41 C 29.56 238.04, 28.35 234.52, 28.34 231.58 C 28.32 228.64, 29.51 225.21, 31.24 222.77 C 32.97 220.33, 35.93 217.87, 38.71 216.95 C 41.5 216.04, 45.1 216.34, 47.96 217.27 C 50.81 218.2, 54.05 220.16, 55.84 222.54 C 57.62 224.91, 58.68 228.54, 58.67 231.52 Z" fill="none" stroke="#1a1a1a" stroke-width="4.19" stroke-linecap="round" stroke-linejoin="round"/>
      </g>
    </g>
    <g id="arm_R_upper">
      <path d="M 156.58 145.88 C 157.56 144.83, 155.43 144.97, 156.51 145.95 C 157.58 146.92, 160.97 149.68, 163.04 151.71 C 165.1 153.75, 167.83 154.9, 168.89 158.18 C 169.95 161.45, 169.34 166.96, 169.41 171.36 C 169.47 175.75, 169.4 180.15, 169.3 184.54 C 169.2 188.93, 169.89 194.42, 168.83 197.67 C 167.76 200.93, 164.94 201.99, 162.9 204.04 C 160.86 206.1, 157.61 209.04, 156.58 210.02 C 155.54 211, 157.69 210.95, 156.67 209.92 C 155.65 208.89, 152.49 205.87, 150.46 203.84 C 148.42 201.8, 145.58 200.94, 144.45 197.72 C 143.33 194.5, 143.66 188.93, 143.72 184.54 C 143.77 180.15, 144.64 175.73, 144.76 171.36 C 144.87 166.99, 143.43 161.5, 144.41 158.31 C 145.38 155.12, 148.58 154.28, 150.61 152.21 C 152.64 150.14, 155.59 146.92, 156.58 145.88 Z" fill="#996b5b" stroke="none" transform="translate(0.58,-0.42)"/><path d="M 156.58 145.88 C 157.56 144.83, 155.43 144.97, 156.51 145.95 C 157.58 146.92, 160.97 149.68, 163.04 151.71 C 165.1 153.75, 167.83 154.9, 168.89 158.18 C 169.95 161.45, 169.34 166.96, 169.41 171.36 C 169.47 175.75, 169.4 180.15, 169.3 184.54 C 169.2 188.93, 169.89 194.42, 168.83 197.67 C 167.76 200.93, 164.94 201.99, 162.9 204.04 C 160.86 206.1, 157.61 209.04, 156.58 210.02 C 155.54 211, 157.69 210.95, 156.67 209.92 C 155.65 208.89, 152.49 205.87, 150.46 203.84 C 148.42 201.8, 145.58 200.94, 144.45 197.72 C 143.33 194.5, 143.66 188.93, 143.72 184.54 C 143.77 180.15, 144.64 175.73, 144.76 171.36 C 144.87 166.99, 143.43 161.5, 144.41 158.31 C 145.38 155.12, 148.58 154.28, 150.61 152.21 C 152.64 150.14, 155.59 146.92, 156.58 145.88 Z" fill="none" stroke="#1a1a1a" stroke-width="4.98" stroke-linecap="round" stroke-linejoin="round"/>
      <g id="arm_R_fore">
        <path d="M 156.58 185.42 C 157.56 184.38, 155.55 184.39, 156.51 185.48 C 157.47 186.57, 160.29 189.92, 162.34 191.96 C 164.38 194, 167.65 194.88, 168.81 197.72 C 169.97 200.56, 169.36 205.23, 169.3 208.99 C 169.23 212.74, 168.48 216.48, 168.43 220.26 C 168.37 224.03, 169.93 228.73, 168.98 231.63 C 168.02 234.53, 164.77 235.62, 162.71 237.66 C 160.64 239.69, 157.62 242.77, 156.58 243.82 C 155.53 244.88, 157.4 245.05, 156.43 243.97 C 155.45 242.9, 152.71 239.45, 150.73 237.37 C 148.74 235.3, 145.55 234.38, 144.52 231.53 C 143.49 228.67, 144.64 224.01, 144.54 220.26 C 144.43 216.5, 143.92 212.72, 143.89 208.99 C 143.87 205.25, 143.28 200.72, 144.4 197.84 C 145.52 194.97, 148.58 193.83, 150.61 191.76 C 152.64 189.69, 155.59 186.47, 156.58 185.42 Z" fill="#996b5b" stroke="none" transform="translate(0.58,-0.42)"/><path d="M 156.58 185.42 C 157.56 184.38, 155.55 184.39, 156.51 185.48 C 157.47 186.57, 160.29 189.92, 162.34 191.96 C 164.38 194, 167.65 194.88, 168.81 197.72 C 169.97 200.56, 169.36 205.23, 169.3 208.99 C 169.23 212.74, 168.48 216.48, 168.43 220.26 C 168.37 224.03, 169.93 228.73, 168.98 231.63 C 168.02 234.53, 164.77 235.62, 162.71 237.66 C 160.64 239.69, 157.62 242.77, 156.58 243.82 C 155.53 244.88, 157.4 245.05, 156.43 243.97 C 155.45 242.9, 152.71 239.45, 150.73 237.37 C 148.74 235.3, 145.55 234.38, 144.52 231.53 C 143.49 228.67, 144.64 224.01, 144.54 220.26 C 144.43 216.5, 143.92 212.72, 143.89 208.99 C 143.87 205.25, 143.28 200.72, 144.4 197.84 C 145.52 194.97, 148.58 193.83, 150.61 191.76 C 152.64 189.69, 155.59 186.47, 156.58 185.42 Z" fill="none" stroke="#1a1a1a" stroke-width="3.98" stroke-linecap="round" stroke-linejoin="round"/>
        <path d="M 171.91 231.55 C 171.87 234.5, 170.51 237.83, 168.74 240.25 C 166.97 242.67, 164.12 245.07, 161.29 246.06 C 158.46 247.04, 154.64 247.08, 151.77 246.16 C 148.89 245.24, 145.77 242.98, 144.05 240.55 C 142.32 238.12, 141.41 234.59, 141.42 231.56 C 141.43 228.53, 142.36 224.79, 144.1 222.37 C 145.84 219.95, 149.01 217.92, 151.86 217.04 C 154.72 216.17, 158.37 216.2, 161.22 217.12 C 164.07 218.03, 167.19 220.14, 168.97 222.54 C 170.75 224.95, 171.94 228.6, 171.91 231.55 Z" fill="#d9a066" stroke="none" transform="translate(0.69,-0.5)"/><path d="M 171.91 231.55 C 171.87 234.5, 170.51 237.83, 168.74 240.25 C 166.97 242.67, 164.12 245.07, 161.29 246.06 C 158.46 247.04, 154.64 247.08, 151.77 246.16 C 148.89 245.24, 145.77 242.98, 144.05 240.55 C 142.32 238.12, 141.41 234.59, 141.42 231.56 C 141.43 228.53, 142.36 224.79, 144.1 222.37 C 145.84 219.95, 149.01 217.92, 151.86 217.04 C 154.72 216.17, 158.37 216.2, 161.22 217.12 C 164.07 218.03, 167.19 220.14, 168.97 222.54 C 170.75 224.95, 171.94 228.6, 171.91 231.55 Z" fill="none" stroke="#1a1a1a" stroke-width="3.07" stroke-linecap="round" stroke-linejoin="round"/>
      </g>
    </g>
    <g id="head">
      <g id="hair_back"></g>
      <path d="M 43.06 75.22 C 43.09 77.23, 42.55 79.66, 41.7 81.29 C 40.85 82.93, 39.35 84.43, 37.97 85.05 C 36.58 85.67, 34.76 85.63, 33.38 85 C 32 84.37, 30.5 82.89, 29.68 81.26 C 28.85 79.64, 28.39 77.25, 28.41 75.25 C 28.43 73.25, 28.97 70.92, 29.8 69.29 C 30.64 67.66, 32.04 66.09, 33.4 65.46 C 34.75 64.83, 36.57 64.87, 37.93 65.5 C 39.28 66.13, 40.67 67.6, 41.53 69.22 C 42.38 70.84, 43.03 73.21, 43.06 75.22 Z" fill="#d9a066" stroke="none" transform="translate(0.35,-0.26)"/><path d="M 43.06 75.22 C 43.09 77.23, 42.55 79.66, 41.7 81.29 C 40.85 82.93, 39.35 84.43, 37.97 85.05 C 36.58 85.67, 34.76 85.63, 33.38 85 C 32 84.37, 30.5 82.89, 29.68 81.26 C 28.85 79.64, 28.39 77.25, 28.41 75.25 C 28.43 73.25, 28.97 70.92, 29.8 69.29 C 30.64 67.66, 32.04 66.09, 33.4 65.46 C 34.75 64.83, 36.57 64.87, 37.93 65.5 C 39.28 66.13, 40.67 67.6, 41.53 69.22 C 42.38 70.84, 43.03 73.21, 43.06 75.22 Z" fill="none" stroke="#1a1a1a" stroke-width="4.47" stroke-linecap="round" stroke-linejoin="round"/><path d="M 171.73 75.23 C 171.69 77.23, 171.06 79.55, 170.2 81.16 C 169.35 82.77, 167.98 84.24, 166.6 84.89 C 165.22 85.54, 163.33 85.68, 161.94 85.08 C 160.55 84.47, 159.08 82.92, 158.24 81.28 C 157.4 79.63, 156.89 77.24, 156.9 75.22 C 156.91 73.2, 157.45 70.79, 158.31 69.16 C 159.17 67.53, 160.65 66.07, 162.03 65.45 C 163.42 64.83, 165.23 64.81, 166.63 65.43 C 168.03 66.05, 169.57 67.53, 170.42 69.16 C 171.27 70.79, 171.77 73.23, 171.73 75.23 Z" fill="#d9a066" stroke="none" transform="translate(0.35,-0.26)"/><path d="M 171.73 75.23 C 171.69 77.23, 171.06 79.55, 170.2 81.16 C 169.35 82.77, 167.98 84.24, 166.6 84.89 C 165.22 85.54, 163.33 85.68, 161.94 85.08 C 160.55 84.47, 159.08 82.92, 158.24 81.28 C 157.4 79.63, 156.89 77.24, 156.9 75.22 C 156.91 73.2, 157.45 70.79, 158.31 69.16 C 159.17 67.53, 160.65 66.07, 162.03 65.45 C 163.42 64.83, 165.23 64.81, 166.63 65.43 C 168.03 66.05, 169.57 67.53, 170.42 69.16 C 171.27 70.79, 171.77 73.23, 171.73 75.23 Z" fill="none" stroke="#1a1a1a" stroke-width="5.12" stroke-linecap="round" stroke-linejoin="round"/>
      <path d="M 56.21 12.4 C 62.28 11.29, 75.67 11.94, 85.4 11.79 C 95.13 11.64, 104.77 11.57, 114.6 11.51 C 124.43 11.44, 138.31 10.25, 144.37 11.42 C 150.43 12.59, 149.08 15.83, 150.96 18.51 C 152.85 21.19, 153.45 25.14, 155.68 27.48 C 157.91 29.81, 163.17 26.67, 164.37 32.53 C 165.56 38.39, 163.19 52.6, 162.87 62.63 C 162.54 72.67, 162.21 82.75, 162.4 92.74 C 162.6 102.73, 164.95 116.5, 164.04 122.56 C 163.13 128.63, 159.41 127.06, 156.93 129.15 C 154.46 131.24, 151.39 132.91, 149.2 135.1 C 147.01 137.29, 149.56 140.98, 143.79 142.28 C 138.02 143.58, 124.33 142.91, 114.6 142.9 C 104.87 142.89, 95.01 142.25, 85.4 142.2 C 75.8 142.16, 62.87 143.66, 56.97 142.61 C 51.07 141.56, 52.62 137.84, 49.99 135.91 C 47.35 133.98, 43.49 133.21, 41.18 131.03 C 38.87 128.86, 36.73 129.23, 36.14 122.85 C 35.54 116.46, 37.69 102.77, 37.62 92.74 C 37.55 82.7, 36.15 72.77, 35.72 62.63 C 35.29 52.49, 33.8 37.94, 35.05 31.89 C 36.29 25.84, 40.87 28.59, 43.19 26.35 C 45.51 24.11, 46.8 20.78, 48.97 18.45 C 51.14 16.12, 50.14 13.51, 56.21 12.4 Z" fill="#d9a066" stroke="none" transform="translate(2.6,-1.9)"/><path d="M 56.21 12.4 C 62.28 11.29, 75.67 11.94, 85.4 11.79 C 95.13 11.64, 104.77 11.57, 114.6 11.51 C 124.43 11.44, 138.31 10.25, 144.37 11.42 C 150.43 12.59, 149.08 15.83, 150.96 18.51 C 152.85 21.19, 153.45 25.14, 155.68 27.48 C 157.91 29.81, 163.17 26.67, 164.37 32.53 C 165.56 38.39, 163.19 52.6, 162.87 62.63 C 162.54 72.67, 162.21 82.75, 162.4 92.74 C 162.6 102.73, 164.95 116.5, 164.04 122.56 C 163.13 128.63, 159.41 127.06, 156.93 129.15 C 154.46 131.24, 151.39 132.91, 149.2 135.1 C 147.01 137.29, 149.56 140.98, 143.79 142.28 C 138.02 143.58, 124.33 142.91, 114.6 142.9 C 104.87 142.89, 95.01 142.25, 85.4 142.2 C 75.8 142.16, 62.87 143.66, 56.97 142.61 C 51.07 141.56, 52.62 137.84, 49.99 135.91 C 47.35 133.98, 43.49 133.21, 41.18 131.03 C 38.87 128.86, 36.73 129.23, 36.14 122.85 C 35.54 116.46, 37.69 102.77, 37.62 92.74 C 37.55 82.7, 36.15 72.77, 35.72 62.63 C 35.29 52.49, 33.8 37.94, 35.05 31.89 C 36.29 25.84, 40.87 28.59, 43.19 26.35 C 45.51 24.11, 46.8 20.78, 48.97 18.45 C 51.14 16.12, 50.14 13.51, 56.21 12.4 Z" fill="none" stroke="#1a1a1a" stroke-width="3.95" stroke-linecap="round" stroke-linejoin="round"/>
      <g id="hair_front"><g id="hair_cap"><path d="M 56.21 12.06 C 62.46 10.74, 75.67 11.99, 85.4 11.97 C 95.13 11.95, 104.85 11.94, 114.6 11.93 C 124.34 11.92, 137.62 10.59, 143.88 11.91 C 150.13 13.24, 149.43 17.18, 152.12 19.89 C 154.81 22.59, 165.36 26.73, 160.01 28.16 C 154.66 29.59, 133.34 28.42, 120 28.47 C 106.67 28.53, 93.34 28.55, 80 28.5 C 66.65 28.44, 45.28 29.6, 39.93 28.16 C 34.58 26.73, 45.17 22.58, 47.88 19.9 C 50.6 17.21, 49.96 13.38, 56.21 12.06 Z" fill="#767268" stroke="none" transform="translate(0.38,-0.28)"/><path d="M 56.21 12.06 C 62.46 10.74, 75.67 11.99, 85.4 11.97 C 95.13 11.95, 104.85 11.94, 114.6 11.93 C 124.34 11.92, 137.62 10.59, 143.88 11.91 C 150.13 13.24, 149.43 17.18, 152.12 19.89 C 154.81 22.59, 165.36 26.73, 160.01 28.16 C 154.66 29.59, 133.34 28.42, 120 28.47 C 106.67 28.53, 93.34 28.55, 80 28.5 C 66.65 28.44, 45.28 29.6, 39.93 28.16 C 34.58 26.73, 45.17 22.58, 47.88 19.9 C 50.6 17.21, 49.96 13.38, 56.21 12.06 Z" fill="none" stroke="#1a1a1a" stroke-width="3.95" stroke-linecap="round" stroke-linejoin="round"/></g></g>
      <g id="headwear"></g>
      <path d="M 76.74 96.16 C 79.55 94.36, 87.08 96.28, 92.25 96.24 C 97.42 96.2, 102.58 95.95, 107.75 95.93 C 112.93 95.9, 120.46 94.25, 123.28 96.1 C 126.09 97.95, 126.49 105.5, 124.66 107.03 C 122.83 108.55, 116.4 105.93, 112.29 105.25 C 108.18 104.57, 104.11 103.01, 100 102.97 C 95.9 102.92, 91.78 104.3, 87.67 104.98 C 83.56 105.66, 77.15 108.52, 75.33 107.05 C 73.51 105.58, 73.92 97.96, 76.74 96.16 Z" fill="#767268" stroke="none" transform="translate(0.26,-0.19)"/><path d="M 76.74 96.16 C 79.55 94.36, 87.08 96.28, 92.25 96.24 C 97.42 96.2, 102.58 95.95, 107.75 95.93 C 112.93 95.9, 120.46 94.25, 123.28 96.1 C 126.09 97.95, 126.49 105.5, 124.66 107.03 C 122.83 108.55, 116.4 105.93, 112.29 105.25 C 108.18 104.57, 104.11 103.01, 100 102.97 C 95.9 102.92, 91.78 104.3, 87.67 104.98 C 83.56 105.66, 77.15 108.52, 75.33 107.05 C 73.51 105.58, 73.92 97.96, 76.74 96.16 Z" fill="none" stroke="#1a1a1a" stroke-width="3.91" stroke-linecap="round" stroke-linejoin="round"/>
      <path d="M 95.84 75.97 C 97.47 74.71, 104.51 77.81, 106.79 79.94 C 109.08 82.07, 108.74 85.8, 109.55 88.74 C 110.35 91.69, 113.43 95.89, 111.62 97.61 C 109.81 99.34, 101.09 100.77, 98.66 99.09 C 96.23 97.4, 97.51 91.34, 97.04 87.48 C 96.57 83.63, 94.21 77.23, 95.84 75.97 Z" fill="#d9a066" stroke="none" transform="translate(0.37,-0.27)"/><path d="M 95.84 75.97 C 97.47 74.71, 104.51 77.81, 106.79 79.94 C 109.08 82.07, 108.74 85.8, 109.55 88.74 C 110.35 91.69, 113.43 95.89, 111.62 97.61 C 109.81 99.34, 101.09 100.77, 98.66 99.09 C 96.23 97.4, 97.51 91.34, 97.04 87.48 C 96.57 83.63, 94.21 77.23, 95.84 75.97 Z" fill="none" stroke="#1a1a1a" stroke-width="3.97" stroke-linecap="round" stroke-linejoin="round"/><path d="M 111.44 97.31 C 109.99 98.06, 104.19 101.07, 102.74 101.83" fill="none" stroke="#1a1a1a" stroke-width="1.98" stroke-linecap="round"/>
        <g id="brows_neutral"><path d="M 51.842941327293104 41.76815988918862 L 87.40151070410222 41.76815988918862" stroke="#43423d" stroke-width="4" fill="none" stroke-linecap="round"/><path d="M 112.59848929589778 41.76815988918862 L 148.15705867270688 41.76815988918862" stroke="#43423d" stroke-width="4" fill="none" stroke-linecap="round"/></g>
        <g id="brows_flat"><path d="M 51.842941327293104 44.76815988918862 L 87.40151070410222 44.76815988918862" stroke="#43423d" stroke-width="4" fill="none" stroke-linecap="round"/><path d="M 112.59848929589778 44.76815988918862 L 148.15705867270688 44.76815988918862" stroke="#43423d" stroke-width="4" fill="none" stroke-linecap="round"/></g>
        <g id="brows_angry"><path d="M 51.842941327293104 55.76815988918862 L 87.40151070410222 35.76815988918862" stroke="#43423d" stroke-width="4" fill="none" stroke-linecap="round"/><path d="M 112.59848929589778 35.76815988918862 L 148.15705867270688 55.76815988918862" stroke="#43423d" stroke-width="4" fill="none" stroke-linecap="round"/></g>
        <g id="brows_raised"><path d="M 51.842941327293104 28.768159889188617 L 87.40151070410222 40.76815988918862" stroke="#43423d" stroke-width="4" fill="none" stroke-linecap="round"/><path d="M 112.59848929589778 40.76815988918862 L 148.15705867270688 28.768159889188617" stroke="#43423d" stroke-width="4" fill="none" stroke-linecap="round"/></g>
        <g id="brows_sad"><path d="M 51.842941327293104 31.768159889188617 L 87.40151070410222 53.76815988918862" stroke="#43423d" stroke-width="4" fill="none" stroke-linecap="round"/><path d="M 112.59848929589778 53.76815988918862 L 148.15705867270688 31.768159889188617" stroke="#43423d" stroke-width="4" fill="none" stroke-linecap="round"/></g>
        <g id="brows_confused"><path d="M 51.842941327293104 25.768159889188617 L 87.40151070410222 49.76815988918862" stroke="#43423d" stroke-width="4" fill="none" stroke-linecap="round"/><path d="M 112.59848929589778 40.76815988918862 L 148.15705867270688 34.76815988918862" stroke="#43423d" stroke-width="4" fill="none" stroke-linecap="round"/></g>
        <g id="brows_worried"><path d="M 51.842941327293104 32.76815988918862 L 87.40151070410222 46.76815988918862" stroke="#43423d" stroke-width="4" fill="none" stroke-linecap="round"/><path d="M 112.59848929589778 46.76815988918862 L 148.15705867270688 32.76815988918862" stroke="#43423d" stroke-width="4" fill="none" stroke-linecap="round"/></g>
        <g id="brows_single"><path d="M 51.842941327293104 20.768159889188617 L 87.40151070410222 52.76815988918862" stroke="#43423d" stroke-width="4" fill="none" stroke-linecap="round"/><path d="M 112.59848929589778 38.76815988918862 L 148.15705867270688 34.76815988918862" stroke="#43423d" stroke-width="4" fill="none" stroke-linecap="round"/></g>
        <g id="eyes_open"><ellipse cx="69.62222601569766" cy="71.11743102168145" rx="18.371927511351373" ry="12.445499281883187" fill="#ffffff" stroke="#1a1a1a" stroke-width="2"/><circle cx="69.62222601569766" cy="71.11743102168145" r="5.037463995047958" fill="#1a1a1a"/><ellipse cx="130.37777398430234" cy="71.11743102168145" rx="18.371927511351373" ry="12.445499281883187" fill="#ffffff" stroke="#1a1a1a" stroke-width="2"/><circle cx="130.37777398430234" cy="71.11743102168145" r="5.037463995047958" fill="#1a1a1a"/></g>
        <g id="eyes_half"><ellipse cx="69.62222601569766" cy="71.11743102168145" rx="18.371927511351373" ry="12.445499281883187" fill="#ffffff" stroke="#1a1a1a" stroke-width="2"/><circle cx="69.62222601569766" cy="73.35762089242043" r="5.037463995047958" fill="#1a1a1a"/><ellipse cx="130.37777398430234" cy="71.11743102168145" rx="18.371927511351373" ry="12.445499281883187" fill="#ffffff" stroke="#1a1a1a" stroke-width="2"/><circle cx="130.37777398430234" cy="73.35762089242043" r="5.037463995047958" fill="#1a1a1a"/><rect x="50.25029850434629" y="56.67193173979827" width="38.743855022702746" height="14.445499281883187" fill="#d9a066"/><path d="M 51.25029850434629 71.11743102168145 L 87.99415352704904 71.11743102168145" stroke="#1a1a1a" stroke-width="2.5" stroke-linecap="round"/><rect x="111.00584647295096" y="56.67193173979827" width="38.743855022702746" height="14.445499281883187" fill="#d9a066"/><path d="M 112.00584647295096 71.11743102168145 L 148.7497014956537 71.11743102168145" stroke="#1a1a1a" stroke-width="2.5" stroke-linecap="round"/></g>
        <g id="eyes_wide"><ellipse cx="69.62222601569766" cy="71.11743102168145" rx="18.371927511351373" ry="16.801424030542304" fill="#ffffff" stroke="#1a1a1a" stroke-width="2"/><circle cx="69.62222601569766" cy="71.11743102168145" r="3.6269740764345295" fill="#1a1a1a"/><ellipse cx="130.37777398430234" cy="71.11743102168145" rx="18.371927511351373" ry="16.801424030542304" fill="#ffffff" stroke="#1a1a1a" stroke-width="2"/><circle cx="130.37777398430234" cy="71.11743102168145" r="3.6269740764345295" fill="#1a1a1a"/></g>
        <g id="eyes_closed"><path d="M 51.25029850434629 71.11743102168145 Q 69.62222601569766 83.97778027962741 87.99415352704904 71.11743102168145" stroke="#1a1a1a" stroke-width="3" fill="none" stroke-linecap="round"/><path d="M 112.00584647295096 71.11743102168145 Q 130.37777398430234 83.97778027962741 148.7497014956537 71.11743102168145" stroke="#1a1a1a" stroke-width="3" fill="none" stroke-linecap="round"/></g>
        <g id="eyes_squint"><ellipse cx="69.62222601569766" cy="71.11743102168145" rx="18.371927511351373" ry="5.227109698390938" fill="#ffffff" stroke="#1a1a1a" stroke-width="2"/><circle cx="69.62222601569766" cy="71.11743102168145" r="4.533717595543162" fill="#1a1a1a"/><ellipse cx="130.37777398430234" cy="71.11743102168145" rx="18.371927511351373" ry="5.227109698390938" fill="#ffffff" stroke="#1a1a1a" stroke-width="2"/><circle cx="130.37777398430234" cy="71.11743102168145" r="4.533717595543162" fill="#1a1a1a"/><rect x="50.25029850434629" y="63.89032132329052" width="38.743855022702746" height="4.613554849195469" fill="#d9a066"/><path d="M 51.25029850434629 68.50387617248599 L 87.99415352704904 68.50387617248599" stroke="#1a1a1a" stroke-width="2.5" stroke-linecap="round"/><rect x="111.00584647295096" y="63.89032132329052" width="38.743855022702746" height="4.613554849195469" fill="#d9a066"/><path d="M 112.00584647295096 68.50387617248599 L 148.7497014956537 68.50387617248599" stroke="#1a1a1a" stroke-width="2.5" stroke-linecap="round"/><path d="M 51.25029850434629 73.99234135579647 L 87.99415352704904 73.99234135579647" stroke="#1a1a1a" stroke-width="2.2" stroke-linecap="round"/><path d="M 112.00584647295096 73.99234135579647 L 148.7497014956537 73.99234135579647" stroke="#1a1a1a" stroke-width="2.2" stroke-linecap="round"/></g>
        <g id="eyes_side"><ellipse cx="69.62222601569766" cy="71.11743102168145" rx="18.371927511351373" ry="12.445499281883187" fill="#ffffff" stroke="#1a1a1a" stroke-width="2"/><circle cx="78.0733126709193" cy="71.11743102168145" r="5.037463995047958" fill="#1a1a1a"/><ellipse cx="130.37777398430234" cy="71.11743102168145" rx="18.371927511351373" ry="12.445499281883187" fill="#ffffff" stroke="#1a1a1a" stroke-width="2"/><circle cx="138.82886063952398" cy="71.11743102168145" r="5.037463995047958" fill="#1a1a1a"/></g>
      <path d="M 46.65731662650845 66.52444914384361 A 22.964909389189216 22.964909389189216 0 0 0 92.58713540488688 66.52444914384361" stroke="#1a1a1a" stroke-width="3" fill="none"/><path d="M 107.41286459511312 66.52444914384361 A 22.964909389189216 22.964909389189216 0 0 0 153.34268337349155 66.52444914384361" stroke="#1a1a1a" stroke-width="3" fill="none"/><path d="M 92.58713540488688 71.11743102168145 L 107.41286459511312 71.11743102168145" stroke="#1a1a1a" stroke-width="3" fill="none"/><path d="M 46.65731662650845 71.11743102168145 L 35.68242458289285 68.38051291882583" stroke="#1a1a1a" stroke-width="3" fill="none"/><path d="M 153.34268337349155 71.11743102168145 L 164.31757541710715 68.38051291882583" stroke="#1a1a1a" stroke-width="3" fill="none"/>
        <g id="mouth_A"><path d="M 65.78852371430472 111.84277239217313 Q 100 114.84277239217313 134.21147628569528 111.84277239217313" stroke="#1a1a1a" stroke-width="4" fill="none" stroke-linecap="round"/></g>
        <g id="mouth_B"><ellipse cx="100" cy="111.84277239217313" rx="26.684951502842328" ry="6.158065731425152" fill="#4a1f1f"/></g>
        <g id="mouth_C"><ellipse cx="100" cy="111.84277239217313" rx="25.316492451414515" ry="12.316131462850304" fill="#4a1f1f"/></g>
        <g id="mouth_D"><ellipse cx="100" cy="113.84277239217313" rx="28.053410554270137" ry="20.526885771417174" fill="#4a1f1f"/><ellipse cx="100" cy="126.89582195787906" rx="14.368820039992022" ry="6.8422952571390585" fill="#c96a6a"/></g>
        <g id="mouth_E"><ellipse cx="100" cy="111.84277239217313" rx="15.737279091419834" ry="13.00036098856421" fill="#4a1f1f"/></g>
        <g id="mouth_F"><ellipse cx="100" cy="111.84277239217313" rx="10.263442885708587" ry="10.947672411422493" fill="#4a1f1f"/></g>
        <g id="mouth_G"><ellipse cx="100" cy="111.84277239217313" rx="22.579574348558893" ry="8.21075430856687" fill="#4a1f1f"/><rect x="82.21003233143844" y="103.63201808360625" width="35.5799353371231" height="5.473836205711247" fill="#f2ede4"/></g>
        <g id="mouth_H"><ellipse cx="100" cy="111.84277239217313" rx="21.21111529713108" ry="14.368820039992022" fill="#4a1f1f"/><ellipse cx="100" cy="114.57969049502876" rx="8.21075430856687" ry="7.526524782852964" fill="#c96a6a"/></g>
        <g id="mouth_X"><path d="M 72.63081897144377 111.84277239217313 L 127.36918102855623 111.84277239217313" stroke="#1a1a1a" stroke-width="3.5" fill="none" stroke-linecap="round"/></g>
        <g id="mouth_smile"><path d="M 68.52544181716033 107.7373952378897 Q 100 125.52736290645124 131.47455818283967 107.7373952378897" stroke="#1a1a1a" stroke-width="4" fill="none" stroke-linecap="round"/></g>
        <g id="mouth_frown"><path d="M 71.94658944572987 117.31660859788438 Q 100 102.26355903217845 128.05341055427013 117.31660859788438" stroke="#1a1a1a" stroke-width="4" fill="none" stroke-linecap="round"/></g>
        <g id="mouth_smirk"><path d="M 73.31504849715768 114.57969049502876 Q 103.42114762856953 117.31660859788438 129.42186960569796 103.63201808360625" stroke="#1a1a1a" stroke-width="4" fill="none" stroke-linecap="round"/></g>
        <g id="mouth_grimace"><path d="M 69.20967134287423 107.39528047503275 L 130.79032865712577 107.39528047503275 L 125.86387607198564 120.73775622645391 L 74.13612392801436 120.73775622645391 Z" fill="#4a1f1f" stroke="#1a1a1a" stroke-width="2.5" stroke-linejoin="round"/><rect x="70.44128448915927" y="107.39528047503275" width="59.11743102168146" height="4.625391593826004" fill="#f2ede4"/><path d="M 79.06257651315448 107.39528047503275 L 79.06257651315448 112.02067206885874" stroke="#1a1a1a" stroke-width="1.2" opacity="0.5"/><path d="M 89.53128825657724 107.39528047503275 L 89.53128825657724 112.02067206885874" stroke="#1a1a1a" stroke-width="1.2" opacity="0.5"/><path d="M 100 107.39528047503275 L 100 112.02067206885874" stroke="#1a1a1a" stroke-width="1.2" opacity="0.5"/><path d="M 110.46871174342276 107.39528047503275 L 110.46871174342276 112.02067206885874" stroke="#1a1a1a" stroke-width="1.2" opacity="0.5"/><path d="M 120.93742348684552 107.39528047503275 L 120.93742348684552 112.02067206885874" stroke="#1a1a1a" stroke-width="1.2" opacity="0.5"/></g>
        <g id="mouth_oh"><ellipse cx="100" cy="113.84277239217313" rx="15.053049565705928" ry="17.78996766856155" fill="#4a1f1f"/></g>
        <g id="mouth_flat"><path d="M 70.57813039430205 111.84277239217313 L 129.42186960569796 111.84277239217313" stroke="#1a1a1a" stroke-width="4.5" fill="none" stroke-linecap="round"/></g>
    </g>
  </g>
</svg>
