<svg xmlns="http://www.w3.org/2000/svg" viewBox="0 0 200 400" width="200" height="400" data-rig="phil" data-build="boxy">
  <g id="torso">
    <g id="leg_L"><path d="M 79.99 256.21 C 80.86 255.4, 79.26 255.2, 80.06 256.04 C 80.85 256.88, 83.11 259.6, 84.76 261.26 C 86.41 262.93, 89.1 258.13, 89.95 266.04 C 90.8 273.94, 89.89 294.47, 89.86 308.69 C 89.83 322.91, 89.78 337.12, 89.8 351.35 C 89.81 365.57, 90.79 386.13, 89.94 394.02 C 89.08 401.91, 86.32 397.04, 84.66 398.68 C 83 400.31, 80.78 402.93, 79.99 403.82 C 79.2 404.71, 80.74 404.81, 79.91 404 C 79.08 403.2, 76.62 400.64, 75.01 398.98 C 73.4 397.31, 71.13 401.94, 70.24 394 C 69.34 386.06, 69.65 365.56, 69.62 351.35 C 69.6 337.13, 69.98 322.89, 70.07 308.69 C 70.15 294.49, 69.35 274.09, 70.15 266.12 C 70.94 258.15, 73.19 262.53, 74.83 260.88 C 76.47 259.22, 79.12 257.01, 79.99 256.21 Z" fill="#3d3d4d" stroke="none" transform="translate(0.47,-0.34)"/><path d="M 79.99 256.21 C 80.86 255.4, 79.26 255.2, 80.06 256.04 C 80.85 256.88, 83.11 259.6, 84.76 261.26 C 86.41 262.93, 89.1 258.13, 89.95 266.04 C 90.8 273.94, 89.89 294.47, 89.86 308.69 C 89.83 322.91, 89.78 337.12, 89.8 351.35 C 89.81 365.57, 90.79 386.13, 89.94 394.02 C 89.08 401.91, 86.32 397.04, 84.66 398.68 C 83 400.31, 80.78 402.93, 79.99 403.82 C 79.2 404.71, 80.74 404.81, 79.91 404 C 79.08 403.2, 76.62 400.64, 75.01 398.98 C 73.4 397.31, 71.13 401.94, 70.24 394 C 69.34 386.06, 69.65 365.56, 69.62 351.35 C 69.6 337.13, 69.98 322.89, 70.07 308.69 C 70.15 294.49, 69.35 274.09, 70.15 266.12 C 70.94 258.15, 73.19 262.53, 74.83 260.88 C 76.47 259.22, 79.12 257.01, 79.99 256.21 Z" fill="none" stroke="#1a1a1a" stroke-width="3.79" stroke-linecap="round" stroke-linejoin="round"/><path d="M 101.93 394.06 C 101.95 395.71, 100.65 397.69, 98.76 399.02 C 96.87 400.34, 93.61 401.57, 90.58 402.03 C 87.55 402.49, 83.6 402.3, 80.57 401.78 C 77.55 401.25, 74.3 400.16, 72.43 398.87 C 70.56 397.58, 69.35 395.68, 69.34 394.05 C 69.33 392.41, 70.5 390.37, 72.36 389.06 C 74.22 387.75, 77.49 386.66, 80.52 386.18 C 83.55 385.7, 87.52 385.68, 90.54 386.18 C 93.56 386.67, 96.72 387.85, 98.62 389.16 C 100.51 390.48, 101.9 392.42, 101.93 394.06 Z" fill="#2b2f38" stroke="none" transform="translate(0.37,-0.27)"/><path d="M 101.93 394.06 C 101.95 395.71, 100.65 397.69, 98.76 399.02 C 96.87 400.34, 93.61 401.57, 90.58 402.03 C 87.55 402.49, 83.6 402.3, 80.57 401.78 C 77.55 401.25, 74.3 400.16, 72.43 398.87 C 70.56 397.58, 69.35 395.68, 69.34 394.05 C 69.33 392.41, 70.5 390.37, 72.36 389.06 C 74.22 387.75, 77.49 386.66, 80.52 386.18 C 83.55 385.7, 87.52 385.68, 90.54 386.18 C 93.56 386.67, 96.72 387.85, 98.62 389.16 C 100.51 390.48, 101.9 392.42, 101.93 394.06 Z" fill="none" stroke="#1a1a1a" stroke-width="5.31" stroke-linecap="round" stroke-linejoin="round"/></g>
    <g id="leg_R"><path d="M 120.01 255.99 C 120.85 255.2, 119.05 255.39, 119.93 256.19 C 120.8 256.99, 123.57 259.15, 125.26 260.79 C 126.94 262.43, 129.25 258.05, 130.04 266.04 C 130.83 274.02, 130.09 294.47, 130.01 308.69 C 129.93 322.91, 129.53 337.11, 129.53 351.35 C 129.54 365.58, 130.74 386.1, 130.03 394.09 C 129.31 402.07, 126.92 397.63, 125.25 399.24 C 123.59 400.85, 120.91 402.94, 120.01 403.74 C 119.12 404.54, 120.68 404.88, 119.88 404.06 C 119.08 403.24, 116.81 400.48, 115.2 398.81 C 113.6 397.13, 111.18 401.91, 110.27 394 C 109.37 386.09, 109.81 365.56, 109.78 351.35 C 109.76 337.13, 110.1 322.92, 110.15 308.69 C 110.19 294.46, 109.23 273.94, 110.03 265.98 C 110.82 258.01, 113.23 262.58, 114.89 260.91 C 116.55 259.25, 119.17 256.78, 120.01 255.99 Z" fill="#3d3d4d" stroke="none" transform="translate(0.47,-0.34)"/><path d="M 120.01 255.99 C 120.85 255.2, 119.05 255.39, 119.93 256.19 C 120.8 256.99, 123.57 259.15, 125.26 260.79 C 126.94 262.43, 129.25 258.05, 130.04 266.04 C 130.83 274.02, 130.09 294.47, 130.01 308.69 C 129.93 322.91, 129.53 337.11, 129.53 351.35 C 129.54 365.58, 130.74 386.1, 130.03 394.09 C 129.31 402.07, 126.92 397.63, 125.25 399.24 C 123.59 400.85, 120.91 402.94, 120.01 403.74 C 119.12 404.54, 120.68 404.88, 119.88 404.06 C 119.08 403.24, 116.81 400.48, 115.2 398.81 C 113.6 397.13, 111.18 401.91, 110.27 394 C 109.37 386.09, 109.81 365.56, 109.78 351.35 C 109.76 337.13, 110.1 322.92, 110.15 308.69 C 110.19 294.46, 109.23 273.94, 110.03 265.98 C 110.82 258.01, 113.23 262.58, 114.89 260.91 C 116.55 259.25, 119.17 256.78, 120.01 255.99 Z" fill="none" stroke="#1a1a1a" stroke-width="3.13" stroke-linecap="round" stroke-linejoin="round"/><path d="M 141.86 394 C 141.89 395.65, 140.67 397.73, 138.8 399.04 C 136.92 400.35, 133.65 401.36, 130.6 401.85 C 127.56 402.34, 123.58 402.45, 120.53 401.97 C 117.48 401.49, 114.15 400.29, 112.29 398.97 C 110.43 397.65, 109.33 395.67, 109.36 394.04 C 109.38 392.42, 110.58 390.55, 112.45 389.22 C 114.31 387.89, 117.52 386.6, 120.54 386.08 C 123.57 385.56, 127.58 385.58, 130.59 386.1 C 133.61 386.61, 136.75 387.85, 138.63 389.17 C 140.51 390.49, 141.83 392.36, 141.86 394 Z" fill="#2b2f38" stroke="none" transform="translate(0.37,-0.27)"/><path d="M 141.86 394 C 141.89 395.65, 140.67 397.73, 138.8 399.04 C 136.92 400.35, 133.65 401.36, 130.6 401.85 C 127.56 402.34, 123.58 402.45, 120.53 401.97 C 117.48 401.49, 114.15 400.29, 112.29 398.97 C 110.43 397.65, 109.33 395.67, 109.36 394.04 C 109.38 392.42, 110.58 390.55, 112.45 389.22 C 114.31 387.89, 117.52 386.6, 120.54 386.08 C 123.57 385.56, 127.58 385.58, 130.59 386.1 C 133.61 386.61, 136.75 387.85, 138.63 389.17 C 140.51 390.49, 141.83 392.36, 141.86 394 Z" fill="none" stroke="#1a1a1a" stroke-width="4.56" stroke-linecap="round" stroke-linejoin="round"/></g>
    <path d="M 88.09 100.34 C 90.1 98.42, 96.05 100.72, 100 100.72 C 103.95 100.71, 109.84 98.4, 111.8 100.32 C 113.76 102.23, 111.75 108.24, 111.76 112.21 C 111.77 116.17, 111.81 120.17, 111.84 124.1 C 111.87 128.02, 113.89 133.67, 111.91 135.74 C 109.94 137.81, 104.01 136.48, 100 136.52 C 95.99 136.56, 89.89 138.05, 87.84 135.98 C 85.78 133.91, 87.68 128.06, 87.69 124.1 C 87.69 120.13, 87.82 116.17, 87.89 112.21 C 87.96 108.25, 86.07 102.25, 88.09 100.34 Z" fill="#c98d5e" stroke="none" transform="translate(0.56,-0.41)"/><path d="M 88.09 100.34 C 90.1 98.42, 96.05 100.72, 100 100.72 C 103.95 100.71, 109.84 98.4, 111.8 100.32 C 113.76 102.23, 111.75 108.24, 111.76 112.21 C 111.77 116.17, 111.81 120.17, 111.84 124.1 C 111.87 128.02, 113.89 133.67, 111.91 135.74 C 109.94 137.81, 104.01 136.48, 100 136.52 C 95.99 136.56, 89.89 138.05, 87.84 135.98 C 85.78 133.91, 87.68 128.06, 87.69 124.1 C 87.69 120.13, 87.82 116.17, 87.89 112.21 C 87.96 108.25, 86.07 102.25, 88.09 100.34 Z" fill="none" stroke="#1a1a1a" stroke-width="5" stroke-linecap="round" stroke-linejoin="round"/>
    <path d="M 59.02 117.73 C 64.75 116.43, 77.23 116.74, 86.34 116.47 C 95.45 116.21, 104.58 115.89, 113.66 116.16 C 122.74 116.44, 135.31 116.71, 140.83 118.13 C 146.36 119.54, 145.86 114.75, 146.8 124.65 C 147.74 134.56, 146.68 159.92, 146.46 177.56 C 146.24 195.19, 145.36 212.89, 145.5 230.46 C 145.63 248.03, 148.01 273.13, 147.26 282.97 C 146.5 292.82, 146.58 288.28, 140.98 289.54 C 135.38 290.79, 122.77 290.46, 113.66 290.5 C 104.55 290.55, 95.49 289.83, 86.34 289.79 C 77.19 289.75, 64.48 291.35, 58.78 290.28 C 53.09 289.2, 53.02 293.33, 52.16 283.37 C 51.29 273.4, 53.29 248.1, 53.6 230.46 C 53.91 212.83, 54.3 195.26, 54.02 177.56 C 53.75 159.86, 51.13 134.23, 51.96 124.26 C 52.79 114.29, 53.29 119.03, 59.02 117.73 Z" fill="#7d6b8a" stroke="none" transform="translate(2.25,-1.65)"/><path d="M 59.02 117.73 C 64.75 116.43, 77.23 116.74, 86.34 116.47 C 95.45 116.21, 104.58 115.89, 113.66 116.16 C 122.74 116.44, 135.31 116.71, 140.83 118.13 C 146.36 119.54, 145.86 114.75, 146.8 124.65 C 147.74 134.56, 146.68 159.92, 146.46 177.56 C 146.24 195.19, 145.36 212.89, 145.5 230.46 C 145.63 248.03, 148.01 273.13, 147.26 282.97 C 146.5 292.82, 146.58 288.28, 140.98 289.54 C 135.38 290.79, 122.77 290.46, 113.66 290.5 C 104.55 290.55, 95.49 289.83, 86.34 289.79 C 77.19 289.75, 64.48 291.35, 58.78 290.28 C 53.09 289.2, 53.02 293.33, 52.16 283.37 C 51.29 273.4, 53.29 248.1, 53.6 230.46 C 53.91 212.83, 54.3 195.26, 54.02 177.56 C 53.75 159.86, 51.13 134.23, 51.96 124.26 C 52.79 114.29, 53.29 119.03, 59.02 117.73 Z" fill="none" stroke="#1a1a1a" stroke-width="5.7" stroke-linecap="round" stroke-linejoin="round"/>
    <g id="arm_L_upper">
      <path d="M 58.35 132.12 C 59.21 131.33, 57.43 131.34, 58.31 132.1 C 59.19 132.86, 61.96 135.05, 63.63 136.7 C 65.3 138.35, 67.55 137.73, 68.33 141.98 C 69.1 146.23, 68.37 155.47, 68.29 162.21 C 68.2 168.95, 67.83 175.7, 67.82 182.43 C 67.82 189.17, 69.04 198.48, 68.25 202.63 C 67.46 206.79, 64.73 205.72, 63.08 207.39 C 61.43 209.06, 59.15 211.8, 58.35 212.68 C 57.55 213.55, 59.16 213.45, 58.29 212.65 C 57.42 211.85, 54.74 209.56, 53.12 207.89 C 51.5 206.23, 49.42 206.9, 48.58 202.66 C 47.74 198.42, 48.15 189.18, 48.08 182.43 C 48.01 175.69, 48.11 168.96, 48.15 162.21 C 48.2 155.46, 47.53 146.16, 48.37 141.93 C 49.2 137.69, 51.5 138.44, 53.17 136.8 C 54.83 135.17, 57.49 132.9, 58.35 132.12 Z" fill="#7d6b8a" stroke="none" transform="translate(0.47,-0.34)"/><path d="M 58.35 132.12 C 59.21 131.33, 57.43 131.34, 58.31 132.1 C 59.19 132.86, 61.96 135.05, 63.63 136.7 C 65.3 138.35, 67.55 137.73, 68.33 141.98 C 69.1 146.23, 68.37 155.47, 68.29 162.21 C 68.2 168.95, 67.83 175.7, 67.82 182.43 C 67.82 189.17, 69.04 198.48, 68.25 202.63 C 67.46 206.79, 64.73 205.72, 63.08 207.39 C 61.43 209.06, 59.15 211.8, 58.35 212.68 C 57.55 213.55, 59.16 213.45, 58.29 212.65 C 57.42 211.85, 54.74 209.56, 53.12 207.89 C 51.5 206.23, 49.42 206.9, 48.58 202.66 C 47.74 198.42, 48.15 189.18, 48.08 182.43 C 48.01 175.69, 48.11 168.96, 48.15 162.21 C 48.2 155.46, 47.53 146.16, 48.37 141.93 C 49.2 137.69, 51.5 138.44, 53.17 136.8 C 54.83 135.17, 57.49 132.9, 58.35 132.12 Z" fill="none" stroke="#1a1a1a" stroke-width="5.33" stroke-linecap="round" stroke-linejoin="round"/>
      <g id="arm_L_fore">
        <path d="M 58.35 192.9 C 59.21 192.14, 57.37 192.08, 58.23 192.85 C 59.09 193.61, 61.84 195.86, 63.51 197.5 C 65.18 199.14, 67.37 198.92, 68.24 202.66 C 69.12 206.4, 68.78 214.19, 68.74 219.95 C 68.69 225.71, 68.09 231.49, 68 237.24 C 67.91 242.99, 68.96 250.72, 68.19 254.44 C 67.43 258.16, 65.03 257.9, 63.39 259.57 C 61.75 261.24, 59.19 263.64, 58.35 264.45 C 57.51 265.27, 59.16 265.3, 58.35 264.45 C 57.54 263.61, 55.15 261.03, 53.5 259.38 C 51.85 257.72, 49.39 258.22, 48.47 254.53 C 47.55 250.84, 47.93 243, 47.98 237.24 C 48.03 231.47, 48.68 225.69, 48.77 219.95 C 48.86 214.2, 47.82 206.53, 48.53 202.77 C 49.25 199.01, 51.43 199.02, 53.06 197.37 C 54.7 195.73, 57.49 193.65, 58.35 192.9 Z" fill="#c98d5e" stroke="none" transform="translate(0.47,-0.34)"/><path d="M 58.35 192.9 C 59.21 192.14, 57.37 192.08, 58.23 192.85 C 59.09 193.61, 61.84 195.86, 63.51 197.5 C 65.18 199.14, 67.37 198.92, 68.24 202.66 C 69.12 206.4, 68.78 214.19, 68.74 219.95 C 68.69 225.71, 68.09 231.49, 68 237.24 C 67.91 242.99, 68.96 250.72, 68.19 254.44 C 67.43 258.16, 65.03 257.9, 63.39 259.57 C 61.75 261.24, 59.19 263.64, 58.35 264.45 C 57.51 265.27, 59.16 265.3, 58.35 264.45 C 57.54 263.61, 55.15 261.03, 53.5 259.38 C 51.85 257.72, 49.39 258.22, 48.47 254.53 C 47.55 250.84, 47.93 243, 47.98 237.24 C 48.03 231.47, 48.68 225.69, 48.77 219.95 C 48.86 214.2, 47.82 206.53, 48.53 202.77 C 49.25 199.01, 51.43 199.02, 53.06 197.37 C 54.7 195.73, 57.49 193.65, 58.35 192.9 Z" fill="none" stroke="#1a1a1a" stroke-width="4.24" stroke-linecap="round" stroke-linejoin="round"/>
        <path d="M 70.45 254.46 C 70.41 256.86, 69.62 259.67, 68.24 261.66 C 66.86 263.65, 64.42 265.66, 62.15 266.4 C 59.89 267.13, 56.96 266.85, 54.66 266.09 C 52.35 265.32, 49.76 263.72, 48.32 261.79 C 46.87 259.86, 45.98 256.93, 45.99 254.51 C 46 252.09, 46.95 249.26, 48.38 247.28 C 49.81 245.29, 52.25 243.34, 54.55 242.6 C 56.84 241.86, 59.83 242.06, 62.14 242.83 C 64.46 243.61, 67.04 245.31, 68.43 247.25 C 69.81 249.19, 70.48 252.05, 70.45 254.46 Z" fill="#c98d5e" stroke="none" transform="translate(0.55,-0.4)"/><path d="M 70.45 254.46 C 70.41 256.86, 69.62 259.67, 68.24 261.66 C 66.86 263.65, 64.42 265.66, 62.15 266.4 C 59.89 267.13, 56.96 266.85, 54.66 266.09 C 52.35 265.32, 49.76 263.72, 48.32 261.79 C 46.87 259.86, 45.98 256.93, 45.99 254.51 C 46 252.09, 46.95 249.26, 48.38 247.28 C 49.81 245.29, 52.25 243.34, 54.55 242.6 C 56.84 241.86, 59.83 242.06, 62.14 242.83 C 64.46 243.61, 67.04 245.31, 68.43 247.25 C 69.81 249.19, 70.48 252.05, 70.45 254.46 Z" fill="none" stroke="#1a1a1a" stroke-width="4.62" stroke-linecap="round" stroke-linejoin="round"/>
      </g>
    </g>
    <g id="arm_R_upper">
      <path d="M 141.65 131.91 C 142.45 131.02, 140.96 131.07, 141.75 131.95 C 142.55 132.83, 144.79 135.53, 146.43 137.2 C 148.07 138.87, 150.81 137.82, 151.61 141.98 C 152.4 146.15, 151.25 155.47, 151.2 162.21 C 151.14 168.95, 151.19 175.69, 151.26 182.43 C 151.32 189.18, 152.32 198.43, 151.6 202.68 C 150.87 206.93, 148.58 206.31, 146.92 207.93 C 145.27 209.56, 142.51 211.68, 141.65 212.43 C 140.79 213.19, 142.58 213.28, 141.76 212.48 C 140.93 211.67, 138.4 209.24, 136.7 207.61 C 135 205.97, 132.44 206.85, 131.54 202.66 C 130.64 198.46, 131.29 189.18, 131.3 182.43 C 131.32 175.69, 131.55 168.94, 131.63 162.21 C 131.71 155.48, 130.89 146.2, 131.78 142.04 C 132.66 137.88, 135.29 138.96, 136.93 137.27 C 138.58 135.58, 140.85 132.79, 141.65 131.91 Z" fill="#7d6b8a" stroke="none" transform="translate(0.47,-0.34)"/><path d="M 141.65 131.91 C 142.45 131.02, 140.96 131.07, 141.75 131.95 C 142.55 132.83, 144.79 135.53, 146.43 137.2 C 148.07 138.87, 150.81 137.82, 151.61 141.98 C 152.4 146.15, 151.25 155.47, 151.2 162.21 C 151.14 168.95, 151.19 175.69, 151.26 182.43 C 151.32 189.18, 152.32 198.43, 151.6 202.68 C 150.87 206.93, 148.58 206.31, 146.92 207.93 C 145.27 209.56, 142.51 211.68, 141.65 212.43 C 140.79 213.19, 142.58 213.28, 141.76 212.48 C 140.93 211.67, 138.4 209.24, 136.7 207.61 C 135 205.97, 132.44 206.85, 131.54 202.66 C 130.64 198.46, 131.29 189.18, 131.3 182.43 C 131.32 175.69, 131.55 168.94, 131.63 162.21 C 131.71 155.48, 130.89 146.2, 131.78 142.04 C 132.66 137.88, 135.29 138.96, 136.93 137.27 C 138.58 135.58, 140.85 132.79, 141.65 131.91 Z" fill="none" stroke="#1a1a1a" stroke-width="3.83" stroke-linecap="round" stroke-linejoin="round"/>
      <g id="arm_R_fore">
        <path d="M 141.65 192.64 C 142.45 191.77, 140.92 191.79, 141.71 192.67 C 142.5 193.55, 144.73 196.27, 146.38 197.93 C 148.02 199.6, 150.75 198.99, 151.61 202.66 C 152.46 206.33, 151.55 214.19, 151.5 219.95 C 151.46 225.71, 151.33 231.47, 151.34 237.24 C 151.36 243, 152.36 250.81, 151.61 254.55 C 150.86 258.3, 148.5 258.1, 146.84 259.72 C 145.18 261.35, 142.5 263.53, 141.65 264.3 C 140.8 265.07, 142.62 265.12, 141.76 264.35 C 140.9 263.58, 138.14 261.33, 136.48 259.69 C 134.83 258.05, 132.61 258.27, 131.82 254.53 C 131.03 250.78, 131.8 243, 131.74 237.24 C 131.69 231.47, 131.52 225.73, 131.49 219.95 C 131.47 214.16, 130.69 206.2, 131.59 202.53 C 132.5 198.86, 135.25 199.58, 136.93 197.94 C 138.6 196.29, 140.85 193.52, 141.65 192.64 Z" fill="#c98d5e" stroke="none" transform="translate(0.47,-0.34)"/><path d="M 141.65 192.64 C 142.45 191.77, 140.92 191.79, 141.71 192.67 C 142.5 193.55, 144.73 196.27, 146.38 197.93 C 148.02 199.6, 150.75 198.99, 151.61 202.66 C 152.46 206.33, 151.55 214.19, 151.5 219.95 C 151.46 225.71, 151.33 231.47, 151.34 237.24 C 151.36 243, 152.36 250.81, 151.61 254.55 C 150.86 258.3, 148.5 258.1, 146.84 259.72 C 145.18 261.35, 142.5 263.53, 141.65 264.3 C 140.8 265.07, 142.62 265.12, 141.76 264.35 C 140.9 263.58, 138.14 261.33, 136.48 259.69 C 134.83 258.05, 132.61 258.27, 131.82 254.53 C 131.03 250.78, 131.8 243, 131.74 237.24 C 131.69 231.47, 131.52 225.73, 131.49 219.95 C 131.47 214.16, 130.69 206.2, 131.59 202.53 C 132.5 198.86, 135.25 199.58, 136.93 197.94 C 138.6 196.29, 140.85 193.52, 141.65 192.64 Z" fill="none" stroke="#1a1a1a" stroke-width="4.71" stroke-linecap="round" stroke-linejoin="round"/>
        <path d="M 153.76 254.46 C 153.71 256.85, 152.86 259.65, 151.47 261.57 C 150.09 263.5, 147.73 265.23, 145.45 266.02 C 143.18 266.8, 140.12 266.99, 137.81 266.29 C 135.5 265.58, 133.03 263.76, 131.59 261.79 C 130.15 259.83, 129.16 256.9, 129.17 254.47 C 129.17 252.04, 130.19 249.12, 131.64 247.22 C 133.08 245.31, 135.56 243.74, 137.85 243.03 C 140.13 242.32, 143.04 242.25, 145.36 242.95 C 147.67 243.65, 150.36 245.32, 151.76 247.24 C 153.16 249.16, 153.81 252.07, 153.76 254.46 Z" fill="#c98d5e" stroke="none" transform="translate(0.55,-0.4)"/><path d="M 153.76 254.46 C 153.71 256.85, 152.86 259.65, 151.47 261.57 C 150.09 263.5, 147.73 265.23, 145.45 266.02 C 143.18 266.8, 140.12 266.99, 137.81 266.29 C 135.5 265.58, 133.03 263.76, 131.59 261.79 C 130.15 259.83, 129.16 256.9, 129.17 254.47 C 129.17 252.04, 130.19 249.12, 131.64 247.22 C 133.08 245.31, 135.56 243.74, 137.85 243.03 C 140.13 242.32, 143.04 242.25, 145.36 242.95 C 147.67 243.65, 150.36 245.32, 151.76 247.24 C 153.16 249.16, 153.81 252.07, 153.76 254.46 Z" fill="none" stroke="#1a1a1a" stroke-width="4.1" stroke-linecap="round" stroke-linejoin="round"/>
      </g>
    </g>
    <g id="head">
      <g id="hair_back"></g>
      <path d="M 49.09 66.74 C 49.08 68.44, 48.61 70.46, 47.89 71.83 C 47.17 73.2, 45.92 74.44, 44.76 74.95 C 43.61 75.46, 42.14 75.42, 40.98 74.89 C 39.81 74.37, 38.52 73.18, 37.78 71.82 C 37.03 70.45, 36.51 68.41, 36.51 66.71 C 36.5 65, 37.01 62.95, 37.75 61.6 C 38.48 60.24, 39.75 59.09, 40.92 58.57 C 42.1 58.06, 43.62 57.99, 44.79 58.5 C 45.96 59.01, 47.24 60.27, 47.96 61.64 C 48.68 63.01, 49.1 65.04, 49.09 66.74 Z" fill="#c98d5e" stroke="none" transform="translate(0.29,-0.21)"/><path d="M 49.09 66.74 C 49.08 68.44, 48.61 70.46, 47.89 71.83 C 47.17 73.2, 45.92 74.44, 44.76 74.95 C 43.61 75.46, 42.14 75.42, 40.98 74.89 C 39.81 74.37, 38.52 73.18, 37.78 71.82 C 37.03 70.45, 36.51 68.41, 36.51 66.71 C 36.5 65, 37.01 62.95, 37.75 61.6 C 38.48 60.24, 39.75 59.09, 40.92 58.57 C 42.1 58.06, 43.62 57.99, 44.79 58.5 C 45.96 59.01, 47.24 60.27, 47.96 61.64 C 48.68 63.01, 49.1 65.04, 49.09 66.74 Z" fill="none" stroke="#1a1a1a" stroke-width="3.39" stroke-linecap="round" stroke-linejoin="round"/><path d="M 163.42 66.75 C 163.43 68.44, 162.93 70.47, 162.2 71.83 C 161.48 73.18, 160.23 74.36, 159.08 74.87 C 157.93 75.38, 156.46 75.39, 155.3 74.88 C 154.14 74.37, 152.88 73.17, 152.14 71.81 C 151.4 70.45, 150.85 68.42, 150.84 66.71 C 150.83 65.01, 151.32 62.95, 152.06 61.59 C 152.79 60.23, 154.07 59.06, 155.24 58.55 C 156.4 58.05, 157.87 58.06, 159.02 58.58 C 160.18 59.1, 161.42 60.31, 162.16 61.67 C 162.89 63.03, 163.41 65.05, 163.42 66.75 Z" fill="#c98d5e" stroke="none" transform="translate(0.29,-0.21)"/><path d="M 163.42 66.75 C 163.43 68.44, 162.93 70.47, 162.2 71.83 C 161.48 73.18, 160.23 74.36, 159.08 74.87 C 157.93 75.38, 156.46 75.39, 155.3 74.88 C 154.14 74.37, 152.88 73.17, 152.14 71.81 C 151.4 70.45, 150.85 68.42, 150.84 66.71 C 150.83 65.01, 151.32 62.95, 152.06 61.59 C 152.79 60.23, 154.07 59.06, 155.24 58.55 C 156.4 58.05, 157.87 58.06, 159.02 58.58 C 160.18 59.1, 161.42 60.31, 162.16 61.67 C 162.89 63.03, 163.41 65.05, 163.42 66.75 Z" fill="none" stroke="#1a1a1a" stroke-width="5.48" stroke-linecap="round" stroke-linejoin="round"/>
      <path d="M 157.23 68.92 C 157.02 72.26, 157.07 75.56, 156.63 78.87 C 156.19 82.18, 156.08 85.87, 154.59 88.76 C 153.1 91.65, 149.52 93.52, 147.68 96.22 C 145.84 98.92, 145.61 102.55, 143.55 104.96 C 141.49 107.36, 137.76 108.32, 135.34 110.65 C 132.91 112.97, 131.79 117.46, 128.99 118.91 C 126.19 120.36, 121.7 118.33, 118.53 119.33 C 115.36 120.34, 113.08 124.27, 109.99 124.94 C 106.91 125.6, 103.27 123.47, 100 123.33 C 96.73 123.19, 93.75 123.95, 90.37 124.09 C 86.99 124.22, 83 125.01, 79.74 124.14 C 76.47 123.27, 73.32 121.08, 70.78 118.86 C 68.25 116.64, 66.86 113.11, 64.52 110.82 C 62.18 108.53, 58.8 107.54, 56.76 105.11 C 54.72 102.68, 54.2 99, 52.28 96.24 C 50.35 93.49, 46.9 91.45, 45.21 88.59 C 43.52 85.74, 42.48 82.33, 42.14 79.09 C 41.8 75.84, 42.61 72.38, 43.18 69.11 C 43.75 65.84, 45.13 62.76, 45.57 59.48 C 46.01 56.2, 44.67 52.38, 45.82 49.43 C 46.96 46.49, 50.76 44.67, 52.44 41.81 C 54.11 38.96, 54.17 35.13, 55.88 32.31 C 57.58 29.5, 60.15 27.14, 62.67 24.92 C 65.19 22.69, 68 20.44, 70.98 18.95 C 73.95 17.46, 77.34 17.06, 80.51 15.96 C 83.68 14.87, 86.76 13.23, 90.01 12.4 C 93.25 11.57, 96.67 10.89, 100 10.98 C 103.33 11.06, 106.78 11.95, 109.97 12.93 C 113.17 13.9, 116.11 15.63, 119.18 16.83 C 122.24 18.04, 125.66 18.4, 128.34 20.16 C 131.02 21.92, 132.79 25.28, 135.26 27.4 C 137.74 29.52, 140.67 30.75, 143.17 32.89 C 145.67 35.03, 148.37 37.49, 150.26 40.24 C 152.16 42.99, 153.27 46.31, 154.54 49.41 C 155.81 52.52, 157.43 55.62, 157.88 58.87 C 158.33 62.12, 157.44 65.59, 157.23 68.92 Z" fill="#c98d5e" stroke="none" transform="translate(2.6,-1.9)"/><path d="M 157.23 68.92 C 157.02 72.26, 157.07 75.56, 156.63 78.87 C 156.19 82.18, 156.08 85.87, 154.59 88.76 C 153.1 91.65, 149.52 93.52, 147.68 96.22 C 145.84 98.92, 145.61 102.55, 143.55 104.96 C 141.49 107.36, 137.76 108.32, 135.34 110.65 C 132.91 112.97, 131.79 117.46, 128.99 118.91 C 126.19 120.36, 121.7 118.33, 118.53 119.33 C 115.36 120.34, 113.08 124.27, 109.99 124.94 C 106.91 125.6, 103.27 123.47, 100 123.33 C 96.73 123.19, 93.75 123.95, 90.37 124.09 C 86.99 124.22, 83 125.01, 79.74 124.14 C 76.47 123.27, 73.32 121.08, 70.78 118.86 C 68.25 116.64, 66.86 113.11, 64.52 110.82 C 62.18 108.53, 58.8 107.54, 56.76 105.11 C 54.72 102.68, 54.2 99, 52.28 96.24 C 50.35 93.49, 46.9 91.45, 45.21 88.59 C 43.52 85.74, 42.48 82.33, 42.14 79.09 C 41.8 75.84, 42.61 72.38, 43.18 69.11 C 43.75 65.84, 45.13 62.76, 45.57 59.48 C 46.01 56.2, 44.67 52.38, 45.82 49.43 C 46.96 46.49, 50.76 44.67, 52.44 41.81 C 54.11 38.96, 54.17 35.13, 55.88 32.31 C 57.58 29.5, 60.15 27.14, 62.67 24.92 C 65.19 22.69, 68 20.44, 70.98 18.95 C 73.95 17.46, 77.34 17.06, 80.51 15.96 C 83.68 14.87, 86.76 13.23, 90.01 12.4 C 93.25 11.57, 96.67 10.89, 100 10.98 C 103.33 11.06, 106.78 11.95, 109.97 12.93 C 113.17 13.9, 116.11 15.63, 119.18 16.83 C 122.24 18.04, 125.66 18.4, 128.34 20.16 C 131.02 21.92, 132.79 25.28, 135.26 27.4 C 137.74 29.52, 140.67 30.75, 143.17 32.89 C 145.67 35.03, 148.37 37.49, 150.26 40.24 C 152.16 42.99, 153.27 46.31, 154.54 49.41 C 155.81 52.52, 157.43 55.62, 157.88 58.87 C 158.33 62.12, 157.44 65.59, 157.23 68.92 Z" fill="none" stroke="#1a1a1a" stroke-width="3.41" stroke-linecap="round" stroke-linejoin="round"/>
      <g id="hair_front"><g id="hair_cap"><path d="M 62.93 26.7 C 60.19 25.5, 68.25 21.3, 71.19 19.55 C 74.14 17.8, 77.47 17.34, 80.6 16.21 C 83.74 15.09, 86.77 13.4, 90.01 12.81 C 93.24 12.21, 96.67 12.62, 100 12.63 C 103.33 12.64, 106.77 12.26, 109.99 12.87 C 113.22 13.49, 116.24 15.19, 119.36 16.32 C 122.48 17.46, 125.76 18, 128.72 19.7 C 131.69 21.4, 139.88 25.38, 137.16 26.53 C 134.43 27.68, 120.64 26.54, 112.39 26.58 C 104.13 26.61, 95.86 26.73, 87.61 26.75 C 79.37 26.77, 65.67 27.9, 62.93 26.7 Z" fill="#c4a86b" stroke="none" transform="translate(0.32,-0.24)"/><path d="M 62.93 26.7 C 60.19 25.5, 68.25 21.3, 71.19 19.55 C 74.14 17.8, 77.47 17.34, 80.6 16.21 C 83.74 15.09, 86.77 13.4, 90.01 12.81 C 93.24 12.21, 96.67 12.62, 100 12.63 C 103.33 12.64, 106.77 12.26, 109.99 12.87 C 113.22 13.49, 116.24 15.19, 119.36 16.32 C 122.48 17.46, 125.76 18, 128.72 19.7 C 131.69 21.4, 139.88 25.38, 137.16 26.53 C 134.43 27.68, 120.64 26.54, 112.39 26.58 C 104.13 26.61, 95.86 26.73, 87.61 26.75 C 79.37 26.77, 65.67 27.9, 62.93 26.7 Z" fill="none" stroke="#1a1a1a" stroke-width="3.45" stroke-linecap="round" stroke-linejoin="round"/></g><path d="M 49.4 43.94 C 47.49 45.88, 47.8 51.96, 47.37 56.02 C 46.94 60.07, 47.19 64.19, 46.81 68.27 C 46.42 72.34, 43.52 78.93, 45.05 80.46 C 46.59 81.99, 52.45 78.61, 56.02 77.44 C 59.59 76.28, 64.6 75.76, 66.48 73.46 C 68.36 71.15, 67.15 66.9, 67.32 63.62 C 67.49 60.33, 67.29 57.01, 67.48 53.74 C 67.68 50.46, 69.93 45.53, 68.49 43.97 C 67.04 42.4, 62.01 44.35, 58.83 44.34 C 55.65 44.34, 51.31 41.99, 49.4 43.94 Z" fill="#c4a86b" stroke="none" transform="translate(0.55,-0.41)"/><path d="M 49.4 43.94 C 47.49 45.88, 47.8 51.96, 47.37 56.02 C 46.94 60.07, 47.19 64.19, 46.81 68.27 C 46.42 72.34, 43.52 78.93, 45.05 80.46 C 46.59 81.99, 52.45 78.61, 56.02 77.44 C 59.59 76.28, 64.6 75.76, 66.48 73.46 C 68.36 71.15, 67.15 66.9, 67.32 63.62 C 67.49 60.33, 67.29 57.01, 67.48 53.74 C 67.68 50.46, 69.93 45.53, 68.49 43.97 C 67.04 42.4, 62.01 44.35, 58.83 44.34 C 55.65 44.34, 51.31 41.99, 49.4 43.94 Z" fill="none" stroke="#1a1a1a" stroke-width="5.44" stroke-linecap="round" stroke-linejoin="round"/><path d="M 150.6 43.94 C 152.4 46.01, 151.53 52.04, 151.98 56.09 C 152.43 60.14, 152.78 64.24, 153.29 68.25 C 153.8 72.27, 156.55 78.77, 155.03 80.18 C 153.52 81.59, 147.83 77.83, 144.21 76.71 C 140.59 75.59, 135.32 75.65, 133.32 73.47 C 131.32 71.29, 132.37 66.93, 132.23 63.65 C 132.09 60.36, 132.61 57.01, 132.49 53.74 C 132.37 50.47, 130.07 45.73, 131.51 44.05 C 132.96 42.37, 137.99 43.69, 141.17 43.67 C 144.35 43.65, 148.79 41.87, 150.6 43.94 Z" fill="#c4a86b" stroke="none" transform="translate(0.55,-0.41)"/><path d="M 150.6 43.94 C 152.4 46.01, 151.53 52.04, 151.98 56.09 C 152.43 60.14, 152.78 64.24, 153.29 68.25 C 153.8 72.27, 156.55 78.77, 155.03 80.18 C 153.52 81.59, 147.83 77.83, 144.21 76.71 C 140.59 75.59, 135.32 75.65, 133.32 73.47 C 131.32 71.29, 132.37 66.93, 132.23 63.65 C 132.09 60.36, 132.61 57.01, 132.49 53.74 C 132.37 50.47, 130.07 45.73, 131.51 44.05 C 132.96 42.37, 137.99 43.69, 141.17 43.67 C 144.35 43.65, 148.79 41.87, 150.6 43.94 Z" fill="none" stroke="#1a1a1a" stroke-width="4.82" stroke-linecap="round" stroke-linejoin="round"/></g>
      
      <path d="M 106.24 79.2 C 106.26 80.22, 105.85 81.46, 105.14 82.31 C 104.42 83.15, 103.14 83.95, 101.96 84.27 C 100.77 84.59, 99.17 84.56, 98.01 84.22 C 96.84 83.89, 95.69 83.07, 94.97 82.25 C 94.25 81.42, 93.7 80.25, 93.69 79.25 C 93.68 78.25, 94.18 77.05, 94.91 76.24 C 95.63 75.42, 96.87 74.66, 98.04 74.35 C 99.21 74.04, 100.75 74.06, 101.92 74.37 C 103.09 74.69, 104.32 75.42, 105.04 76.22 C 105.77 77.03, 106.23 78.19, 106.24 79.2 Z" fill="#c98d5e" stroke="none" transform="translate(0.25,-0.18)"/><path d="M 106.24 79.2 C 106.26 80.22, 105.85 81.46, 105.14 82.31 C 104.42 83.15, 103.14 83.95, 101.96 84.27 C 100.77 84.59, 99.17 84.56, 98.01 84.22 C 96.84 83.89, 95.69 83.07, 94.97 82.25 C 94.25 81.42, 93.7 80.25, 93.69 79.25 C 93.68 78.25, 94.18 77.05, 94.91 76.24 C 95.63 75.42, 96.87 74.66, 98.04 74.35 C 99.21 74.04, 100.75 74.06, 101.92 74.37 C 103.09 74.69, 104.32 75.42, 105.04 76.22 C 105.77 77.03, 106.23 78.19, 106.24 79.2 Z" fill="none" stroke="#1a1a1a" stroke-width="5.55" stroke-linecap="round" stroke-linejoin="round"/>
        <g id="brows_neutral"><path d="M 61.45848730970609 38.402583485233464 L 91.63266775735744 38.402583485233464" stroke="#665a3e" stroke-width="4" fill="none" stroke-linecap="round"/><path d="M 108.36733224264256 38.402583485233464 L 138.5415126902939 38.402583485233464" stroke="#665a3e" stroke-width="4" fill="none" stroke-linecap="round"/></g>
        <g id="brows_flat"><path d="M 61.45848730970609 41.402583485233464 L 91.63266775735744 41.402583485233464" stroke="#665a3e" stroke-width="4" fill="none" stroke-linecap="round"/><path d="M 108.36733224264256 41.402583485233464 L 138.5415126902939 41.402583485233464" stroke="#665a3e" stroke-width="4" fill="none" stroke-linecap="round"/></g>
        <g id="brows_angry"><path d="M 61.45848730970609 52.402583485233464 L 91.63266775735744 32.402583485233464" stroke="#665a3e" stroke-width="4" fill="none" stroke-linecap="round"/><path d="M 108.36733224264256 32.402583485233464 L 138.5415126902939 52.402583485233464" stroke="#665a3e" stroke-width="4" fill="none" stroke-linecap="round"/></g>
        <g id="brows_raised"><path d="M 61.45848730970609 25.402583485233464 L 91.63266775735744 37.402583485233464" stroke="#665a3e" stroke-width="4" fill="none" stroke-linecap="round"/><path d="M 108.36733224264256 37.402583485233464 L 138.5415126902939 25.402583485233464" stroke="#665a3e" stroke-width="4" fill="none" stroke-linecap="round"/></g>
        <g id="brows_sad"><path d="M 61.45848730970609 28.402583485233464 L 91.63266775735744 50.402583485233464" stroke="#665a3e" stroke-width="4" fill="none" stroke-linecap="round"/><path d="M 108.36733224264256 50.402583485233464 L 138.5415126902939 28.402583485233464" stroke="#665a3e" stroke-width="4" fill="none" stroke-linecap="round"/></g>
        <g id="brows_confused"><path d="M 61.45848730970609 22.402583485233464 L 91.63266775735744 46.402583485233464" stroke="#665a3e" stroke-width="4" fill="none" stroke-linecap="round"/><path d="M 108.36733224264256 37.402583485233464 L 138.5415126902939 31.402583485233464" stroke="#665a3e" stroke-width="4" fill="none" stroke-linecap="round"/></g>
        <g id="brows_worried"><path d="M 61.45848730970609 29.402583485233464 L 91.63266775735744 43.402583485233464" stroke="#665a3e" stroke-width="4" fill="none" stroke-linecap="round"/><path d="M 108.36733224264256 43.402583485233464 L 138.5415126902939 29.402583485233464" stroke="#665a3e" stroke-width="4" fill="none" stroke-linecap="round"/></g>
        <g id="brows_single"><path d="M 61.45848730970609 17.402583485233464 L 91.63266775735744 49.402583485233464" stroke="#665a3e" stroke-width="4" fill="none" stroke-linecap="round"/><path d="M 108.36733224264256 35.402583485233464 L 138.5415126902939 31.402583485233464" stroke="#665a3e" stroke-width="4" fill="none" stroke-linecap="round"/></g>
        <g id="eyes_open"><ellipse cx="76.54557753353177" cy="63.28238970859276" rx="5.783384585799843" ry="5.783384585799843" fill="#1a1a1a"/><ellipse cx="123.45442246646823" cy="63.28238970859276" rx="5.783384585799843" ry="5.783384585799843" fill="#1a1a1a"/></g>
        <g id="eyes_half"><ellipse cx="76.54557753353177" cy="63.28238970859276" rx="5.783384585799843" ry="2.6025230636099295" fill="#1a1a1a"/><ellipse cx="123.45442246646823" cy="63.28238970859276" rx="5.783384585799843" ry="2.6025230636099295" fill="#1a1a1a"/></g>
        <g id="eyes_wide"><ellipse cx="76.54557753353177" cy="63.28238970859276" rx="5.783384585799843" ry="8.675076878699764" fill="#1a1a1a"/><ellipse cx="123.45442246646823" cy="63.28238970859276" rx="5.783384585799843" ry="8.675076878699764" fill="#1a1a1a"/></g>
        <g id="eyes_closed"><path d="M 70.76219294773193 63.28238970859276 Q 76.54557753353177 67.33075891865265 82.3289621193316 63.28238970859276" stroke="#1a1a1a" stroke-width="3" fill="none" stroke-linecap="round"/><path d="M 117.6710378806684 63.28238970859276 Q 123.45442246646823 67.33075891865265 129.23780705226807 63.28238970859276" stroke="#1a1a1a" stroke-width="3" fill="none" stroke-linecap="round"/></g>
        <g id="eyes_squint"><ellipse cx="76.54557753353177" cy="63.28238970859276" rx="5.783384585799843" ry="1.6193476840239562" fill="#1a1a1a"/><ellipse cx="123.45442246646823" cy="63.28238970859276" rx="5.783384585799843" ry="1.6193476840239562" fill="#1a1a1a"/></g>
        <g id="eyes_side"><ellipse cx="82.83186512679247" cy="63.28238970859276" rx="5.783384585799843" ry="5.783384585799843" fill="#1a1a1a"/><ellipse cx="129.74071005972894" cy="63.28238970859276" rx="5.783384585799843" ry="5.783384585799843" fill="#1a1a1a"/></g>
      
        <g id="mouth_A"><path d="M 71.22200353053157 98.61025817451221 Q 100 101.61025817451221 128.77799646946843 98.61025817451221" stroke="#1a1a1a" stroke-width="4" fill="none" stroke-linecap="round"/></g>
        <g id="mouth_B"><ellipse cx="100" cy="98.61025817451221" rx="22.446837246185385" ry="5.180039364504319" fill="#4a1f1f"/></g>
        <g id="mouth_C"><ellipse cx="100" cy="98.61025817451221" rx="21.295717387406647" ry="10.360078729008638" fill="#4a1f1f"/></g>
        <g id="mouth_D"><ellipse cx="100" cy="100.61025817451221" rx="23.59795710496412" ry="17.266797881681065" fill="#4a1f1f"/><ellipse cx="100" cy="111.27257662107833" rx="12.086758517176746" ry="5.755599293893688" fill="#c96a6a"/></g>
        <g id="mouth_E"><ellipse cx="100" cy="98.61025817451221" rx="13.237878375955484" ry="10.935638658398007" fill="#4a1f1f"/></g>
        <g id="mouth_F"><ellipse cx="100" cy="98.61025817451221" rx="8.633398940840532" ry="9.208958870229901" fill="#4a1f1f"/></g>
        <g id="mouth_G"><ellipse cx="100" cy="98.61025817451221" rx="18.99347766984917" ry="6.906719152672426" fill="#4a1f1f"/><rect x="85.03544183587641" y="91.70353902183979" width="29.92911632824718" height="4.604479435114951" fill="#f2ede4"/></g>
        <g id="mouth_H"><ellipse cx="100" cy="98.61025817451221" rx="17.842357811070432" ry="12.086758517176746" fill="#4a1f1f"/><ellipse cx="100" cy="100.91249789206968" rx="6.906719152672426" ry="6.331159223283057" fill="#c96a6a"/></g>
        <g id="mouth_X"><path d="M 76.97760282442525 98.61025817451221 L 123.02239717557475 98.61025817451221" stroke="#1a1a1a" stroke-width="3.5" fill="none" stroke-linecap="round"/></g>
        <g id="mouth_smile"><path d="M 73.52424324808904 95.156898598176 Q 100 110.12145676229959 126.47575675191096 95.156898598176" stroke="#1a1a1a" stroke-width="4" fill="none" stroke-linecap="round"/></g>
        <g id="mouth_frown"><path d="M 76.40204289503588 103.21473760962716 Q 100 90.55241916306105 123.59795710496412 103.21473760962716" stroke="#1a1a1a" stroke-width="4" fill="none" stroke-linecap="round"/></g>
        <g id="mouth_smirk"><path d="M 77.55316275381462 100.91249789206968 Q 102.87779964694684 103.21473760962716 124.74907696374285 91.70353902183979" stroke="#1a1a1a" stroke-width="4" fill="none" stroke-linecap="round"/></g>
        <g id="mouth_grimace"><path d="M 74.0998031774784 94.8691186334813 L 125.9001968225216 94.8691186334813 L 121.75616533091814 106.092537256574 L 78.24383466908186 106.092537256574 Z" fill="#4a1f1f" stroke="#1a1a1a" stroke-width="2.5" stroke-linejoin="round"/><rect x="75.13581105037926" y="94.8691186334813" width="49.728377899241465" height="3.8907851226721335" fill="#f2ede4"/><path d="M 82.38786616068532 94.8691186334813 L 82.38786616068532 98.75990375615345" stroke="#1a1a1a" stroke-width="1.2" opacity="0.5"/><path d="M 91.19393308034266 94.8691186334813 L 91.19393308034266 98.75990375615345" stroke="#1a1a1a" stroke-width="1.2" opacity="0.5"/><path d="M 100 94.8691186334813 L 100 98.75990375615345" stroke="#1a1a1a" stroke-width="1.2" opacity="0.5"/><path d="M 108.80606691965734 94.8691186334813 L 108.80606691965734 98.75990375615345" stroke="#1a1a1a" stroke-width="1.2" opacity="0.5"/><path d="M 117.61213383931468 94.8691186334813 L 117.61213383931468 98.75990375615345" stroke="#1a1a1a" stroke-width="1.2" opacity="0.5"/></g>
        <g id="mouth_oh"><ellipse cx="100" cy="100.61025817451221" rx="12.662318446566115" ry="14.96455816412359" fill="#4a1f1f"/></g>
        <g id="mouth_flat"><path d="M 75.25092303625715 98.61025817451221 L 124.74907696374285 98.61025817451221" stroke="#1a1a1a" stroke-width="4.5" fill="none" stroke-linecap="round"/></g>
    </g>
  </g>
</svg>
